<svg width="56" height="80" viewBox="0 0 56 80" fill="none" xmlns="http://www.w3.org/2000/svg">
<path d="M3.17587 13.1321L0 16.308H5.34833L3.17587 13.1321Z" fill="#50336E"/>
<path d="M3.17593 13.132V78.0643H30.6481C30.6481 78.0643 30.6481 25.4385 30.6481 24.3011L11.4931 4.89764L3.17593 13.132Z" fill="#D9A78B"/>
<path d="M53.4466 24.3012H30.648V78.0644H53.4466V24.3012Z" fill="#B68B73"/>
<path d="M11.4931 4.89764H33.2638L53.4467 24.3011H30.6481L11.4931 4.89764Z" fill="#FE5F5F"/>
<path d="M34.5254 6.11047H12.6888L13.2247 6.65358H35.0904L34.5254 6.11047Z" fill="#E41717"/>
<path d="M38.0982 9.54456H16.0814L16.6172 10.0877H38.6632L38.0982 9.54456Z" fill="#E41717"/>
<path d="M41.671 12.9811H19.4717L20.0075 13.5242H42.2361L41.671 12.9811Z" fill="#E41717"/>
<path d="M45.2438 16.415H22.8618L23.3976 16.9581H45.8088L45.2438 16.415Z" fill="#E41717"/>
<path d="M48.8192 19.849H26.2545L26.7902 20.3921H49.3842L48.8192 19.849Z" fill="#E41717"/>
<path d="M52.392 23.2855H29.6447L30.1805 23.8286H52.9571L52.392 23.2855Z" fill="#E41717"/>
<path d="M23.0518 0H20.4483V6.08627H23.0518V0Z" fill="#FE5F5F"/>
<path d="M20.4483 6.08627L19.2306 4.9026H18.0056V0H20.4483V6.08627Z" fill="#E41717"/>
<path d="M30.648 75.2879H0.414001V79.9981H30.648V75.2879Z" fill="#B68B73"/>
<path d="M30.6479 80H55.2682V75.2898H30.6479V80Z" fill="#B68B73"/>
<path d="M13.6971 19.5057H9.65909V14.1331C9.65909 13.0176 10.5627 12.1141 11.6781 12.1141C12.7936 12.1141 13.6971 13.0176 13.6971 14.1331V19.5057Z" fill="white"/>
<path d="M9.65908 37.633H6.01074V27.7864C6.01074 26.7781 6.82663 25.9622 7.83491 25.9622C8.8432 25.9622 9.65908 26.7781 9.65908 27.7864V37.633Z" fill="white"/>
<path d="M15.1414 37.633H11.4931V27.7864C11.4931 26.7781 12.309 25.9622 13.3173 25.9622C14.3256 25.9622 15.1414 26.7781 15.1414 27.7864V37.633Z" fill="white"/>
<path d="M20.5603 37.633H16.912V27.7864C16.912 26.7781 17.7278 25.9622 18.7361 25.9622C19.7444 25.9622 20.5603 26.7781 20.5603 27.7864V37.633Z" fill="white"/>
<path d="M26.0815 37.633H22.4332V27.7864C22.4332 26.7781 23.2491 25.9622 24.2574 25.9622C25.2657 25.9622 26.0815 26.7781 26.0815 27.7864V37.633Z" fill="white"/>
<path d="M9.65908 53.1494H6.01074V43.3028C6.01074 42.2945 6.82663 41.4786 7.83491 41.4786C8.8432 41.4786 9.65908 42.2945 9.65908 43.3028V53.1494Z" fill="white"/>
<path d="M15.1414 53.1494H11.4931V43.3028C11.4931 42.2945 12.309 41.4786 13.3173 41.4786C14.3256 41.4786 15.1414 42.2945 15.1414 43.3028V53.1494Z" fill="white"/>
<path d="M20.5603 53.1494H16.912V43.3028C16.912 42.2945 17.7278 41.4786 18.7361 41.4786C19.7444 41.4786 20.5603 42.2945 20.5603 43.3028V53.1494Z" fill="white"/>
<path d="M26.0815 53.1494H22.4332V43.3028C22.4332 42.2945 23.2491 41.4786 24.2574 41.4786C25.2657 41.4786 26.0815 42.2945 26.0815 43.3028V53.1494Z" fill="white"/>
<path d="M9.65908 67.9036H6.01074V58.0593C6.01074 57.0511 6.82663 56.2352 7.83491 56.2352C8.8432 56.2352 9.65908 57.0511 9.65908 58.0593V67.9036Z" fill="white"/>
<path d="M15.1414 67.9036H11.4931V58.0593C11.4931 57.0511 12.309 56.2352 13.3173 56.2352C14.3256 56.2352 15.1414 57.0511 15.1414 58.0593V67.9036Z" fill="white"/>
<path d="M20.5603 67.9036H16.912V58.0593C16.912 57.0511 17.7278 56.2352 18.7361 56.2352C19.7444 56.2352 20.5603 57.0511 20.5603 58.0593V67.9036Z" fill="white"/>
<path d="M26.0815 67.9036H22.4332V58.0593C22.4332 57.0511 23.2491 56.2352 24.2574 56.2352C25.2657 56.2352 26.0815 57.0511 26.0815 58.0593V67.9036Z" fill="white"/>
<path d="M0 16.3079L11.493 4.89764L12.0215 5.43344L1.09353 16.3079H0Z" fill="#E41717"/>
<path d="M37.504 30.3462H34.7665V37.6331H37.504V30.3462Z" fill="white"/>
<path d="M41.4713 30.3462H38.7338V37.6331H41.4713V30.3462Z" fill="white"/>
<path d="M45.4387 30.3462H42.7012V37.6331H45.4387V30.3462Z" fill="white"/>
<path d="M49.406 30.3462H46.6685V37.6331H49.406V30.3462Z" fill="white"/>
<path d="M37.504 41.481H34.7665V48.768H37.504V41.481Z" fill="white"/>
<path d="M41.4713 41.481H38.7338V48.768H41.4713V41.481Z" fill="white"/>
<path d="M45.4387 41.481H42.7012V48.768H45.4387V41.481Z" fill="white"/>
<path d="M49.406 41.481H46.6685V48.768H49.406V41.481Z" fill="white"/>
<path d="M37.504 52.5917H34.7665V59.8787H37.504V52.5917Z" fill="white"/>
<path d="M41.4713 52.5917H38.7338V59.8787H41.4713V52.5917Z" fill="white"/>
<path d="M45.4387 52.5917H42.7012V59.8787H45.4387V52.5917Z" fill="white"/>
<path d="M49.406 52.5917H46.6685V59.8787H49.406V52.5917Z" fill="white"/>
<path d="M37.504 62.7305H34.7665V70.0175H37.504V62.7305Z" fill="white"/>
<path d="M41.4713 62.7305H38.7338V70.0175H41.4713V62.7305Z" fill="white"/>
<path d="M45.4387 62.7305H42.7012V70.0175H45.4387V62.7305Z" fill="white"/>
<path d="M49.406 62.7305H46.6685V70.0175H49.406V62.7305Z" fill="white"/>
</svg>
