<svg width="60" height="68" viewBox="0 0 60 68" fill="none" xmlns="http://www.w3.org/2000/svg">
<path d="M14.8827 26.3934H13.3157L15.2573 24.6524L14.8827 26.3934Z" fill="#50336E"/>
<path d="M2.55643 67.1273H44.7955V26.1047L29.157 4.82428L14.2853 25.0777V35.9758L2.55643 47.7047V67.1273Z" fill="#D9A78B"/>
<path d="M44.7955 61.5361H2.55643V62.1906H44.7955V61.5361Z" fill="#B68B73"/>
<path d="M58.3846 26.1047H44.7956V67.1273H58.3846V26.1047Z" fill="#B68B73"/>
<path d="M28.8728 4.43848H42.8827L59.3455 26.1046H44.7957L28.8728 4.43848Z" fill="#3864A7"/>
<path d="M47.7201 26.1052L31.2463 4.43909H30.0121L46.486 26.1052H47.7201Z" fill="#073D8E"/>
<path d="M50.1532 26.1045L33.6816 4.43835H32.4452L48.919 26.1045H50.1532Z" fill="#073D8E"/>
<path d="M52.5861 26.1045L36.1145 4.43835H34.8803L51.3519 26.1045H52.5861Z" fill="#073D8E"/>
<path d="M55.0193 26.1045L38.5476 4.43835H37.3135L53.7851 26.1045H55.0193Z" fill="#073D8E"/>
<path d="M57.4545 26.1045L40.9807 4.43835H39.7465L56.2181 26.1045H57.4545Z" fill="#073D8E"/>
<path d="M59.3454 26.1045L42.8826 4.43835H42.1796L58.6512 26.1045H59.3454Z" fill="#073D8E"/>
<path d="M40.2776 0H37.9217V6.0584H40.2776V0Z" fill="#3864A7"/>
<path d="M37.9218 6.0584L36.8199 4.43857H35.7113V0H37.9218V6.0584Z" fill="#073D8D"/>
<path d="M13.9835 26.3933H12.7648L28.8728 4.43848L29.4612 5.23848L13.9835 26.3933Z" fill="#3864A7"/>
<path d="M14.2854 35.2838L0 49.3026L2.08928 49.3004L2.5565 48.8221V67.1274H14.2854V37.0205V35.2838Z" fill="#B68B73"/>
<path d="M23.6762 32.0067H19.6894V43.0635H23.6762V32.0067Z" fill="white"/>
<path d="M31.2419 32.0067H27.2573V43.0635H31.2419V32.0067Z" fill="white"/>
<path d="M38.81 32.0067H34.8232V43.0635H38.81V32.0067Z" fill="white"/>
<path d="M23.6762 47.9803H19.6894V59.037H23.6762V47.9803Z" fill="white"/>
<path d="M31.2419 47.9803H27.2573V59.037H31.2419V47.9803Z" fill="white"/>
<path d="M38.81 47.9803H34.8232V59.037H38.81V47.9803Z" fill="white"/>
<path d="M32.3293 20.7792C32.7012 19.1936 31.7174 17.6068 30.1318 17.2348C28.5463 16.8628 26.9594 17.8467 26.5874 19.4322C26.2155 21.0178 27.1993 22.6047 28.7849 22.9766C30.3704 23.3486 31.9573 22.3648 32.3293 20.7792Z" fill="white"/>
</svg>
