<svg width="209" height="62" viewBox="0 0 209 62" fill="none" xmlns="http://www.w3.org/2000/svg">
<path d="M163.54 50.5067H162.359V44.0372H163.409L165.9 47.2393L168.261 44.0372H169.31V50.5067H168.13V45.8016L165.9 48.8076H165.835L163.474 45.8016V50.5067H163.54Z" fill="#2A2A2A"/>
<path d="M121.637 50.5067H120.456V45.2135H118.161L118.096 46.3244C118.03 47.2393 117.899 47.9581 117.768 48.5463C117.637 49.1344 117.44 49.5918 117.178 49.8532C116.915 50.1146 116.719 50.376 116.456 50.4413C116.194 50.572 115.866 50.6374 115.473 50.6374L115.407 49.5265C115.538 49.5265 115.604 49.5265 115.735 49.4611C115.866 49.3958 115.997 49.3304 116.128 49.1997C116.26 49.069 116.391 48.873 116.522 48.6116C116.653 48.3502 116.719 48.0235 116.85 47.566C116.915 47.1086 116.981 46.6512 117.046 46.063L117.178 44.0372H121.702V50.5067H121.637Z" fill="#2A2A2A"/>
<path d="M100.723 44.0372H102.756V50.5067H101.576V48.3502H100.33L98.7563 50.5067H97.3793L99.2809 48.0888C98.8874 48.0235 98.5596 47.7621 98.2973 47.4353C98.035 47.1086 97.9039 46.7165 97.9039 46.1937C97.9039 45.5402 98.1661 45.0175 98.6251 44.6254C99.0186 44.2333 99.7399 44.0372 100.723 44.0372ZM99.0842 46.1937C99.0842 46.5205 99.2153 46.7819 99.412 46.9779C99.6743 47.1739 99.9366 47.3046 100.264 47.3046H101.576V45.0828H100.527C100.068 45.0828 99.6743 45.2135 99.412 45.4095C99.2153 45.6056 99.0842 45.867 99.0842 46.1937Z" fill="#2A2A2A"/>
<path d="M84.1307 50.5067V44.0372C84.1963 44.0372 84.2619 44.0372 84.3275 44.0372C84.393 44.0372 84.5242 44.0372 84.7209 44.0372C84.852 44.0372 85.0488 44.0372 85.1799 44.0372C85.9012 44.0372 86.3602 44.0372 86.4914 44.0372C88.3274 44.0372 89.311 44.6254 89.311 45.7363C89.311 46.1284 89.1799 46.4551 88.9176 46.7165C88.6553 46.9779 88.393 47.1739 87.9996 47.2393C88.9832 47.4353 89.5078 47.9581 89.5078 48.7423C89.5078 49.9839 88.5241 50.6374 86.4914 50.6374C86.4258 50.6374 85.9668 50.6374 85.2455 50.6374C85.1143 50.6374 84.9176 50.6374 84.7865 50.6374C84.5898 50.6374 84.4586 50.6374 84.393 50.6374C84.2619 50.5067 84.1963 50.5067 84.1307 50.5067ZM86.557 44.8868C86.2947 44.8868 85.8356 44.8868 85.2455 44.9521V46.8472H86.6881C87.0815 46.8472 87.4094 46.7819 87.6717 46.5858C87.934 46.3898 88.0651 46.1284 88.0651 45.867C88.0651 45.2135 87.5406 44.8868 86.557 44.8868ZM86.6881 47.566H85.3111V49.5265C86.0324 49.5265 86.4258 49.5918 86.6225 49.5918C87.7373 49.5918 88.2619 49.2651 88.2619 48.5463C88.2619 47.9581 87.7373 47.566 86.6881 47.566Z" fill="#2A2A2A"/>
<path d="M54.9516 45.6709L51.2139 50.5067H50.0336V44.0372H51.2139V48.873L54.9516 44.0372H56.1319V50.5067H54.9516V45.6709Z" fill="#2A2A2A"/>
<path d="M131.869 45.1482H129.508V43.9719H135.41V45.1482H133.049V50.4414H131.869V45.1482Z" fill="#2A2A2A"/>
<path d="M113.902 50.5067H112.787V45.0828H109.246V50.4414H108.066V43.9719H113.902V50.5067Z" fill="#2A2A2A"/>
<path d="M171.737 45.4095L171.409 44.4946C172.064 44.1025 172.786 43.9065 173.573 43.9065C174.425 43.9065 175.081 44.1025 175.474 44.56C175.868 45.0174 176.064 45.6709 176.064 46.5858V50.572H174.95V49.6571C174.425 50.3106 173.769 50.572 172.851 50.572C172.261 50.572 171.802 50.3759 171.409 50.0492C171.015 49.6571 170.884 49.1997 170.884 48.6115C170.884 47.9581 171.081 47.5006 171.54 47.1085C171.999 46.7165 172.589 46.5858 173.31 46.5858C173.966 46.5858 174.556 46.7165 174.95 46.9778C174.95 46.259 174.819 45.7362 174.622 45.4095C174.425 45.0828 174.032 44.9521 173.442 44.9521C172.983 44.9521 172.327 45.0828 171.737 45.4095ZM173.31 49.5918C173.966 49.5918 174.491 49.3304 175.015 48.7422V47.8927C174.622 47.6313 174.097 47.4353 173.573 47.4353C173.179 47.4353 172.851 47.5006 172.589 47.6967C172.327 47.8927 172.196 48.1541 172.196 48.4808C172.196 48.8076 172.327 49.069 172.523 49.1997C172.72 49.4611 172.982 49.5918 173.31 49.5918Z" fill="#2A2A2A"/>
<path d="M91.6074 45.4095L91.2796 44.4946C91.9353 44.1025 92.6566 43.9065 93.4435 43.9065C94.2959 43.9065 94.9516 44.1025 95.3451 44.56C95.7385 45.0174 95.9352 45.6709 95.9352 46.5858V50.572H94.8205V49.6571C94.2959 50.3106 93.6402 50.572 92.7222 50.572C92.132 50.572 91.673 50.3759 91.2796 50.0492C90.8862 49.6571 90.755 49.1997 90.755 48.6115C90.755 47.9581 90.9517 47.5006 91.4107 47.1085C91.8697 46.7165 92.4599 46.5858 93.1812 46.5858C93.8369 46.5858 94.4271 46.7165 94.8205 46.9778C94.8205 46.259 94.6894 45.7362 94.4926 45.4095C94.2959 45.0828 93.9025 44.9521 93.3123 44.9521C92.7878 44.9521 92.1976 45.0828 91.6074 45.4095ZM93.1812 49.5918C93.8369 49.5918 94.3615 49.3304 94.8861 48.7422V47.8927C94.4926 47.6313 93.9681 47.4353 93.4435 47.4353C93.05 47.4353 92.7222 47.5006 92.4599 47.6967C92.1976 47.8927 92.0665 48.1541 92.0665 48.4808C92.0665 48.8076 92.1976 49.069 92.3943 49.1997C92.5255 49.4611 92.8533 49.5918 93.1812 49.5918Z" fill="#2A2A2A"/>
<path d="M76.5268 49.7225C75.8711 49.069 75.5432 48.2848 75.5432 47.3046C75.5432 46.3244 75.8711 45.5402 76.5268 44.8867C77.1825 44.2332 78.035 43.9065 79.0186 43.9065C80.0022 43.9065 80.8546 44.2332 81.5104 44.8867C82.1661 45.5402 82.494 46.3244 82.494 47.3046C82.494 48.2848 82.1661 49.069 81.5104 49.7225C80.8546 50.3759 80.0678 50.7027 79.0186 50.7027C77.9694 50.6373 77.1825 50.3106 76.5268 49.7225ZM76.7891 47.2392C76.7891 47.8927 76.9858 48.4809 77.3793 48.8729C77.7727 49.3304 78.3629 49.5264 79.0186 49.5264C79.6743 49.5264 80.1989 49.3304 80.6579 48.8729C81.0513 48.4155 81.3136 47.8927 81.3136 47.2392C81.3136 46.5858 81.1169 45.9976 80.6579 45.6055C80.2645 45.1481 79.7399 44.9521 79.0842 44.9521C78.4284 44.9521 77.9038 45.1481 77.5104 45.6055C76.9858 46.063 76.7891 46.5858 76.7891 47.2392Z" fill="#2A2A2A"/>
<path d="M69.1135 53.3819H67.9332V44.0372H69.1135V44.8214C69.3758 44.56 69.6381 44.3639 70.0971 44.1679C70.4906 43.9718 70.9496 43.9065 71.343 43.9065C72.261 43.9065 72.9823 44.2332 73.5069 44.8214C74.0315 45.4095 74.3594 46.1937 74.3594 47.1739C74.3594 48.1541 74.0315 49.0036 73.4414 49.6571C72.8512 50.3106 71.9988 50.6373 71.0152 50.6373C70.2283 50.6373 69.6381 50.5066 69.1791 50.1799V53.3819H69.1135ZM71.0152 44.9521C70.2283 44.9521 69.6381 45.2788 69.1135 45.8669V49.069C69.6381 49.3957 70.2283 49.5918 70.8184 49.5918C71.4742 49.5918 72.0643 49.3957 72.4578 48.9383C72.8512 48.4808 73.0479 47.9581 73.0479 47.2392C73.0479 46.5858 72.8512 45.9976 72.4578 45.6055C72.1299 45.1481 71.6709 44.9521 71.0152 44.9521Z" fill="#2A2A2A"/>
<path d="M155.539 53.3817H154.359V44.0369H155.539V44.8211C155.802 44.5597 156.064 44.3637 156.523 44.1676C156.916 43.9716 157.375 43.9062 157.769 43.9062C158.687 43.9062 159.408 44.233 159.933 44.8211C160.457 45.4093 160.785 46.1934 160.785 47.1736C160.785 48.1539 160.457 49.0034 159.867 49.6569C159.277 50.3103 158.425 50.6371 157.441 50.6371C156.654 50.6371 156.064 50.5064 155.605 50.1797V53.3817H155.539ZM157.375 44.9518C156.588 44.9518 155.998 45.2786 155.474 45.8667V49.0687C155.998 49.3955 156.588 49.5915 157.179 49.5915C157.834 49.5915 158.425 49.3955 158.818 48.938C159.211 48.4806 159.408 47.9578 159.408 47.239C159.408 46.5855 159.211 45.9974 158.818 45.6053C158.556 45.1479 158.031 44.9518 157.375 44.9518Z" fill="#2A2A2A"/>
<path d="M146.752 49.7222C146.097 49.0687 145.769 48.2846 145.769 47.3043C145.769 46.3241 146.097 45.5399 146.752 44.8865C147.408 44.233 148.261 43.9062 149.244 43.9062C150.228 43.9062 151.08 44.233 151.736 44.8865C152.392 45.5399 152.719 46.3241 152.719 47.3043C152.719 48.2846 152.392 49.0687 151.736 49.7222C151.08 50.3757 150.293 50.7024 149.244 50.7024C148.195 50.6371 147.408 50.3103 146.752 49.7222ZM147.015 47.239C147.015 47.8925 147.211 48.4806 147.605 48.8727C147.998 49.3301 148.588 49.5262 149.244 49.5262C149.9 49.5262 150.424 49.3301 150.883 48.8727C151.277 48.4153 151.539 47.8925 151.539 47.239C151.539 46.5855 151.342 45.9974 150.883 45.6053C150.49 45.1479 149.965 44.9518 149.31 44.9518C148.654 44.9518 148.129 45.1479 147.736 45.6053C147.211 46.0627 147.015 46.5855 147.015 47.239Z" fill="#2A2A2A"/>
<path d="M124.065 45.4093L123.737 44.4944C124.393 44.1023 125.114 43.9062 125.901 43.9062C126.754 43.9062 127.409 44.1023 127.803 44.5597C128.196 45.0172 128.393 45.6706 128.393 46.5855V50.5717H127.278V49.6569C126.754 50.3103 126.098 50.5717 125.18 50.5717C124.59 50.5717 124.131 50.3757 123.737 50.049C123.344 49.6569 123.213 49.1994 123.213 48.6113C123.213 47.9578 123.409 47.5004 123.869 47.1083C124.328 46.7162 124.918 46.5855 125.639 46.5855C126.295 46.5855 126.885 46.7162 127.278 46.9776C127.278 46.2588 127.147 45.736 126.95 45.4093C126.754 45.0825 126.36 44.9518 125.77 44.9518C125.246 44.9518 124.655 45.0825 124.065 45.4093ZM125.639 49.5915C126.295 49.5915 126.819 49.3301 127.344 48.742V47.8925C126.95 47.6311 126.426 47.435 125.901 47.435C125.508 47.435 125.18 47.5004 124.918 47.6964C124.655 47.8925 124.524 48.1539 124.524 48.4806C124.524 48.8073 124.655 49.0687 124.852 49.1994C124.983 49.4608 125.246 49.5915 125.639 49.5915Z" fill="#2A2A2A"/>
<path d="M47.4763 50.5072H39.3452V40.4436H40.5911V49.3309H46.0337V40.4436H47.214V49.3309H48.591V52.3369H47.4107V50.5072H47.4763Z" fill="#2A2A2A"/>
<path d="M140.853 53.3819H139.673V50.6373H139.542C138.427 50.6373 137.575 50.3106 136.984 49.6571C136.329 49.0036 136.066 48.2195 136.066 47.2392C136.066 46.3244 136.394 45.5402 137.05 44.8214C137.706 44.1679 138.558 43.8411 139.607 43.8411H139.804V40.3777H140.984V43.8411H141.181C142.23 43.8411 143.083 44.1679 143.738 44.8214C144.394 45.4748 144.722 46.259 144.722 47.2392C144.722 48.2195 144.394 49.069 143.804 49.6571C143.214 50.3106 142.361 50.572 141.247 50.572H141.05V53.3819H140.853ZM137.247 47.2392C137.247 47.9581 137.443 48.4808 137.902 48.9383C138.296 49.3304 138.886 49.5918 139.607 49.5918H139.738V45.0174H139.542C138.82 45.0174 138.296 45.2134 137.902 45.6709C137.443 46.063 137.247 46.5858 137.247 47.2392ZM141.05 44.9521H140.853V49.5264H140.984C141.706 49.5264 142.296 49.3304 142.689 48.8729C143.083 48.4808 143.279 47.8927 143.279 47.1739C143.279 46.5204 143.083 45.9976 142.689 45.5402C142.296 45.2134 141.771 44.9521 141.05 44.9521Z" fill="#2A2A2A"/>
<path d="M62.6234 53.3819H61.4431V50.6373H61.3119C60.1972 50.6373 59.3447 50.3106 58.7546 49.6571C58.0988 49.0036 57.8365 48.2195 57.8365 47.2392C57.8365 46.3244 58.1644 45.5402 58.8201 44.8214C59.4759 44.1679 60.3283 43.8411 61.3775 43.8411H61.5742V40.3777H62.7545V43.8411H62.9512C64.0004 43.8411 64.8529 44.1679 65.5086 44.8214C66.1643 45.4748 66.4922 46.259 66.4922 47.2392C66.4922 48.2195 66.1643 49.069 65.5742 49.6571C64.984 50.3106 64.1316 50.572 63.0168 50.572H62.8201V53.3819H62.6234ZM59.0169 47.2392C59.0169 47.9581 59.2136 48.4808 59.6726 48.9383C60.066 49.3304 60.6562 49.5918 61.3775 49.5918H61.5086V45.0174H61.3119C60.5906 45.0174 60.066 45.2134 59.6726 45.6709C59.2136 46.063 59.0169 46.5858 59.0169 47.2392ZM62.8201 44.9521H62.6234V49.5264H62.7545C63.4758 49.5264 64.066 49.3304 64.4594 48.8729C64.8529 48.4808 65.0496 47.8927 65.0496 47.1739C65.0496 46.5204 64.8529 45.9976 64.4594 45.5402C64.066 45.2134 63.5414 44.9521 62.8201 44.9521Z" fill="#2A2A2A"/>
<path d="M38.8855 33.9073V17.1782H43.9346L48.9838 22.8635L53.6395 17.1782H58.5574V33.9726H52.9181V25.6735L48.8526 30.3132H48.7215L44.4592 25.6735V33.9073H38.8855Z" fill="#2A2A2A"/>
<path d="M60.9191 25.5428C60.9191 22.9942 61.7715 20.9031 63.4764 19.204C65.1813 17.505 67.4764 16.7208 70.296 16.7208C73.1156 16.7208 75.4107 17.5703 77.05 19.204C78.7549 20.9031 79.6074 22.9942 79.6074 25.5428C79.6074 28.0914 78.7549 30.1825 77.05 31.8815C75.3451 33.5806 73.1156 34.3648 70.296 34.3648C67.4764 34.3648 65.1813 33.5152 63.4764 31.8815C61.7715 30.1825 60.9191 28.0914 60.9191 25.5428ZM70.2304 29.1369C72.1976 29.1369 73.5746 27.7646 73.5746 25.5428C73.5746 23.4517 72.132 21.9487 70.2304 21.9487C68.3288 21.9487 66.8862 23.3863 66.8862 25.5428C66.8862 27.6339 68.2632 29.1369 70.2304 29.1369Z" fill="#2A2A2A"/>
<path d="M87.5416 33.9069H81.9679V17.1778H87.6072V25.9344L93.5743 17.1778H99.2136V33.9722H93.5743V25.1503L87.5416 33.9069ZM89.1153 8.94397C89.1153 10.3816 89.6399 11.1005 90.6891 11.1005C91.6071 11.1005 92.1317 10.3816 92.1317 8.94397H96.9841C96.9841 12.6035 94.7546 15.2827 90.6891 15.2827C86.2957 15.2827 84.2629 12.7342 84.2629 8.94397H89.1153Z" fill="#2A2A2A"/>
<path d="M169.51 33.9077V26.8501H160.133V33.9077H157.117V17.1786H160.133V24.0401H169.51V17.1786H172.526V33.973H169.51V33.9077Z" fill="#2A2A2A"/>
<path d="M124.983 33.9077H121.967V17.1786H124.983V29.66L134.688 17.1786H137.704V33.973H134.688V21.4262L124.983 33.9077Z" fill="#2A2A2A"/>
<path d="M208.262 31.4899C206.885 33.2543 204.459 34.2998 201.77 34.2998C199.082 34.2998 196.918 33.5157 195.213 31.9473C193.574 30.3136 192.721 28.2225 192.721 25.6086C192.721 23.1253 193.574 21.0342 195.147 19.4005C196.787 17.7015 198.82 16.8519 201.246 16.8519C204.197 16.8519 206.426 17.5708 207.869 19.0738L206.492 21.4263C205.246 20.25 203.606 19.6619 201.639 19.6619C200.065 19.6619 198.754 20.25 197.574 21.3609C196.459 22.4719 195.869 23.9095 195.869 25.6086C195.869 27.373 196.459 28.876 197.574 29.9215C198.754 31.0324 200.197 31.5552 201.901 31.5552C203.869 31.5552 205.442 30.8364 206.754 29.3987L208.262 31.4899Z" fill="#2A2A2A"/>
<path d="M190.559 32.078C188.92 33.5157 186.821 34.2998 184.264 34.2998C181.51 34.2998 179.346 33.5157 177.707 31.9473C176.067 30.3136 175.215 28.2225 175.215 25.6086C175.215 23.06 176.002 20.9689 177.51 19.3352C179.018 17.6361 181.182 16.8519 183.87 16.8519C186.1 16.8519 187.936 17.5708 189.444 19.0084C190.952 20.4461 191.674 22.2758 191.674 24.4976C191.674 25.2818 191.608 25.9353 191.477 26.5234H178.559C178.821 29.6601 181.116 31.5552 184.395 31.5552C186.625 31.5552 188.329 30.9671 189.575 29.7908L190.559 32.078ZM178.362 24.0402H188.592C188.461 21.2302 186.625 19.5965 183.739 19.5965C180.723 19.5965 178.69 21.4263 178.362 24.0402Z" fill="#2A2A2A"/>
<path d="M143.083 33.6464C141.706 33.1889 140.722 32.6661 140.198 32.0127L141.706 29.7908C143.083 30.9017 145.116 31.6206 146.689 31.6206C149.247 31.6206 151.083 30.5097 151.083 28.876C151.083 27.5036 149.837 26.7195 147.804 26.7195H144.919V24.3016H147.542C149.247 24.3016 150.427 23.256 150.427 21.9491C150.427 20.4461 149.05 19.5312 146.82 19.5312C145.05 19.5312 143.345 20.1847 141.771 21.3609L140.591 19.0738C141.968 17.7015 144.525 16.8519 147.214 16.8519C151.279 16.8519 153.509 18.551 153.509 21.3609C153.509 23.3214 152.525 24.6283 150.558 25.2818V25.3472C152.788 25.6086 154.099 27.2423 154.099 29.268C154.099 32.3394 151.214 34.2998 146.952 34.2998C145.771 34.2998 144.46 34.0384 143.083 33.6464Z" fill="#2A2A2A"/>
<path d="M117.575 9.79397C116.984 10.6435 116.263 11.1663 115.411 11.493C114.558 11.8198 113.509 12.0811 112.263 12.2118C111.017 12.4079 109.968 12.7346 108.985 13.1267C106.427 14.303 105.05 16.9822 104.722 21.2299H104.788C105.903 18.8773 108.591 17.309 111.411 17.309C116.198 17.309 119.214 20.5764 119.214 25.6735C119.214 28.026 118.361 30.1172 116.788 31.7509C115.148 33.4499 113.116 34.2341 110.558 34.2341C107.804 34.2341 105.64 33.3192 104.067 31.4241C102.427 29.529 101.706 27.0458 101.706 23.7784C101.706 16.5248 103.804 12.0158 107.935 10.2514C108.919 9.79397 110.034 9.53258 111.214 9.33654C113.575 8.94445 114.886 8.68306 115.87 7.3761L117.575 9.79397ZM110.624 31.4895C112.263 31.4895 113.575 30.9014 114.558 29.8558C115.607 28.7449 116.132 27.4379 116.132 25.8042C116.132 22.4061 114.165 20.1189 110.755 20.1189C109.247 20.1189 108.001 20.511 106.952 21.3606C105.903 22.2101 105.247 23.1903 104.985 24.3666C104.985 28.6795 107.28 31.4895 110.624 31.4895Z" fill="#2A2A2A"/>
<path d="M9.50769 51.943L14.229 61.8759H14.2945L19.0814 51.943L14.2945 47.1726L9.50769 51.943Z" fill="#2A2A2A"/>
<path d="M14.2949 4.82703C13.2458 5.34981 0 12.342 0 23.5166C0 33.0574 7.80319 47.5646 7.80319 47.5646L14.2949 41.0952L20.7867 47.5646C20.7867 47.5646 28.5898 33.1227 28.5898 23.5166C28.5243 12.342 15.2785 5.34981 14.2949 4.82703ZM18.5572 36.7169L14.2949 32.4692L10.0327 36.7169C9.83596 36.1287 6.95074 28.4177 6.95074 23.3859C6.95074 16.5897 13.7703 12.7995 14.2949 12.5381C14.8195 12.7341 21.6391 16.5897 21.6391 23.3859C21.6391 28.4177 18.7539 36.1287 18.5572 36.7169Z" fill="#FE5F5F"/>
<path d="M17.7052 23.0593C17.7052 24.889 16.197 26.3921 14.361 26.3921C12.5249 26.3921 11.0167 24.889 11.0167 23.0593C11.0167 21.2296 12.5249 19.7266 14.361 19.7266C16.197 19.7266 17.7052 21.2296 17.7052 23.0593Z" fill="#2A2A2A"/>
<path d="M28.5606 0.000137912L23.6921 4.85193L28.5606 9.70372L33.4291 4.85193L28.5606 0.000137912Z" fill="#2A2A2A"/>
</svg>
