<svg width="101" height="143" viewBox="0 0 101 143" fill="none" xmlns="http://www.w3.org/2000/svg">
<path d="M24.0437 27.1072C24.0437 27.1072 26.8194 26.8168 27.8188 29.4988C28.8181 32.1825 29.7615 33.0607 29.8785 34.4705C30.3553 40.1725 33.0157 38.8833 32.2675 42.1701C31.5192 45.4568 31.0017 45.9544 31.0017 45.9544L24.6426 44.706L18.2003 44.7264C18.2003 44.7264 20.7199 43.4661 20.16 40.7823C19.5984 38.0986 18.2003 33.701 18.9909 30.7048C19.7799 27.7119 22.3843 27.3365 24.0437 27.1072Z" fill="#454240"/>
<path d="M22.2874 115.213C22.2874 115.213 20.2938 117.955 20.5771 118.396C20.8605 118.838 23.0356 118.901 24.359 118.396C25.6825 117.892 25.7147 114.624 26.3136 113.221C26.5647 112.633 26.0269 110.899 25.2736 110.773C24.5185 110.647 23.6346 111.043 23.6346 111.043C23.6346 111.043 24.4065 113.039 22.2874 115.213Z" fill="#3865A7"/>
<path d="M23.6348 111.043C23.6348 111.043 23.477 112.338 23.2259 113.251C22.9731 114.167 21.6174 116.249 21.6819 116.502C21.7447 116.756 23.4464 116.983 24.1404 116.333C24.8343 115.682 25.3705 113.798 25.4332 112.657C25.496 111.516 25.2755 110.773 25.2755 110.773C25.2755 110.773 24.2965 110.349 23.6348 111.043Z" fill="#E7A585"/>
<path d="M26.314 113.221V116.139H25.9356V113.883L26.314 113.221Z" fill="#4F5587"/>
<path d="M27.5047 115.213C27.5047 115.213 25.5111 117.955 25.7945 118.396C26.0778 118.838 28.2529 118.901 29.5764 118.396C30.8998 117.892 30.932 114.624 31.5309 113.221C31.782 112.633 31.2442 110.899 30.4909 110.773C29.7358 110.647 28.8519 111.043 28.8519 111.043C28.8519 111.043 29.6239 113.039 27.5047 115.213Z" fill="#3865A7"/>
<path d="M28.8521 111.043C28.8521 111.043 28.6943 112.338 28.4432 113.251C28.1904 114.167 26.8347 116.249 26.8992 116.502C26.9619 116.756 28.6637 116.983 29.3577 116.333C30.0516 115.682 30.5878 113.798 30.6506 112.657C30.7133 111.516 30.4928 110.773 30.4928 110.773C30.4928 110.773 29.5138 110.349 28.8521 111.043Z" fill="#E7A585"/>
<path d="M31.5312 113.221V116.139H31.1529V113.883L31.5312 113.221Z" fill="#4F5587"/>
<path d="M18.6229 65.6102C18.6229 65.6102 17.1145 73.928 16.7073 76.0104C16.3001 78.0912 15.1583 88.1704 15.0361 89.8843C14.914 91.5981 18.7552 99.8412 18.9945 100.41C23.0139 109.929 23.4771 112.083 23.4771 112.083C23.4771 112.083 24.7971 112.91 25.4062 111.923C25.5912 111.622 22.9325 100.707 22.4947 97.679C22.0875 94.8627 21.0271 90.5144 21.3121 89.5259C21.5972 88.5373 24.2067 74.9183 24.6953 74.3458C25.184 73.7751 25.9186 74.672 26.2037 75.9374C26.4887 77.2028 27.0995 88.1381 27.466 89.5259C27.8325 90.9136 27.5474 95.6067 27.751 97.9728C27.9546 100.339 28.803 111.386 28.803 111.386C28.803 111.386 30.4454 111.68 30.6082 111.417C30.7711 111.154 32.1929 99.1465 32.2337 96.332C32.2744 93.5158 32.3185 89.6329 32.3966 88.4167C33.1516 76.7493 34.5785 75.2223 32.0844 66.8263C25.9865 46.2772 18.6229 65.6102 18.6229 65.6102Z" fill="#E7A585"/>
<path d="M18.6228 65.6103C18.6228 65.6103 17.1145 73.9281 16.7073 76.0106C16.3001 78.0913 15.1582 88.1706 15.036 89.8844C14.9139 91.5983 18.6228 99.8414 18.7043 100.453C18.7857 101.064 21.8397 109.826 21.8397 109.826C21.8397 109.826 24.926 109.773 25.7658 108.973C25.9355 108.811 22.9324 100.706 22.4946 97.6774C22.0874 94.8612 21.027 90.5129 21.3121 89.5243C21.5971 88.5358 24.2066 74.9167 24.6952 74.3443C25.1839 73.7736 25.9185 74.6704 26.2036 75.9358C26.4886 77.2013 27.0994 88.1366 27.4659 89.5243C27.8324 90.912 27.5473 95.6052 27.7509 97.9712C27.9545 100.337 27.5253 108.747 27.5253 108.747C27.5253 108.747 31.5668 108.959 31.7297 108.696C31.8925 108.433 32.1946 99.1467 32.2353 96.3304C32.276 93.5142 32.3201 89.6313 32.3982 88.4152C33.1532 76.7478 34.5801 75.2207 32.086 66.8248C25.9864 46.2773 18.6228 65.6103 18.6228 65.6103Z" fill="#FE5F5F"/>
<path d="M32.6933 68.4094C32.9291 68.3143 31.0407 62.067 30.6674 60.2003C30.3298 58.517 29.1794 56.9747 30.3026 54.1059C30.9457 52.4634 30.9033 50.5219 30.9033 50.5219C30.9033 50.5219 32.6203 54.3165 32.7849 55.2949C32.9478 56.2749 26.8482 54.4931 26.7634 54.6273C26.6022 54.8855 26.424 56.5382 26.424 57.1089C26.424 57.5811 35.2807 59.6754 36.3292 57.8189C36.6262 57.2924 34.7038 47.2165 33.4619 45.8747C31.4241 43.6716 26.0711 41.7947 26.0711 41.7947C26.0711 41.7947 24.6035 41.0066 22.0211 41.8219C19.4405 42.6372 15.8266 45.1409 15.2005 45.7931C14.5761 46.4454 12.0752 56.2851 11.8563 57.559C11.651 58.7582 11.7308 61.2789 14.4641 60.9562L21.8413 59.2644L21.3832 57.0138L15.8537 57.452C14.7254 57.6457 15.2667 56.6537 15.4109 56.1017C15.5517 55.5615 16.9396 50.5542 16.9396 50.5542C16.8598 51.9419 17.905 56.4957 18.4479 58.0737C18.9909 59.6517 17.7896 68.0952 17.7082 69.0192C17.7082 69.0209 22.1501 72.6728 32.6933 68.4094Z" fill="#3865A7"/>
<path d="M27.2725 42.2585C27.2725 42.2585 25.4536 46.0191 23.9334 47.1198C23.9334 47.1198 21.1966 43.0143 21.3375 42.0682C21.3358 42.0682 24.3677 40.7213 27.2725 42.2585Z" fill="#E7A585"/>
<path d="M27.3386 54.9349C27.3386 54.9349 26.4953 54.5935 26.2731 54.2877C26.0491 53.982 25.3026 53.7985 24.7477 53.9633C24.1946 54.1281 24.5 56.5077 24.5 56.5077L27.42 56.8865L27.3386 54.9349Z" fill="#E7A585"/>
<path d="M22.0535 56.7522C22.0535 56.7522 22.3334 55.215 22.2673 54.9313C22.1994 54.6477 22.7661 54.3623 22.8458 55.0638C22.9239 55.7653 22.9663 56.212 22.9663 56.212L22.0535 56.7522Z" fill="#E7A585"/>
<path d="M23.2681 57.8189L25.3941 57.7323C25.6655 57.7204 25.881 57.4996 25.8844 57.2261L25.9421 52.5669C25.9455 52.2748 25.7046 52.0387 25.4127 52.0489L22.8677 52.1321C22.5759 52.1423 22.3519 52.392 22.374 52.6841L22.7354 57.345C22.7574 57.6219 22.9933 57.8308 23.2681 57.8189Z" fill="#ECEBEB"/>
<path d="M22.0076 56.878C22.0076 56.878 21.9686 56.4415 22.8068 56.0406C23.9198 55.509 25.4044 54.9688 25.6572 55.1081C26.022 55.3086 25.8336 55.5871 25.1312 55.8181C24.4288 56.0508 24.1964 56.1239 24.1964 56.1239C24.1964 56.1239 25.5724 55.9931 25.8812 56.1578C26.19 56.3226 26.2069 56.7031 25.9813 56.7659C25.7556 56.8288 25.2245 56.8661 25.2245 56.8661C25.2245 56.8661 25.8082 56.8882 25.8659 57.1226C25.9083 57.2959 25.9304 57.5456 25.3772 57.6475C25.3772 57.6475 25.7522 58.0636 25.1906 58.3303C24.629 58.597 23.6127 58.8399 23.102 58.9248C22.0399 59.0997 19.6425 58.969 19.6425 58.969L20.6265 57.2993C20.6265 57.2993 21.1746 57.3417 21.5512 57.2143C22.0585 57.0428 22.0076 56.878 22.0076 56.878Z" fill="#E7A585"/>
<path d="M21.385 57.0156L21.8431 59.2662L17.1416 60.3448L16.9601 57.3655L21.385 57.0156Z" fill="#474D7C"/>
<path d="M26.7618 54.6275C26.7618 54.6275 26.375 55.4598 26.4225 57.1091C26.4225 57.1091 29.3391 58.1758 31.6025 58.4221V55.56L26.7618 54.6275Z" fill="#474D7C"/>
<path d="M21.8413 59.2662L18.5464 61.1006C18.5684 60.7185 18.5854 60.3516 18.5939 60.0119L21.8413 59.2662Z" fill="#20233A"/>
<path d="M30.5046 59.5107C27.8612 58.4593 26.8024 57.5115 26.5123 57.2092C26.4495 57.1446 26.4224 57.109 26.4224 57.109L30.1771 58.2046C30.2722 58.6615 30.3943 59.0878 30.5046 59.5107Z" fill="#20233A"/>
<path d="M24.4101 28.6767C24.4101 28.6767 28.0868 29.2084 27.5473 34.6403C27.0094 40.074 23.7653 39.6426 23.5482 39.6375C23.331 39.6324 20.2939 39.7513 20.0309 33.1218C20.0309 33.1218 19.9071 28.2198 24.4101 28.6767Z" fill="#E7A585"/>
<path d="M26.0422 38.6744C26.0422 38.6744 25.8149 41.5008 26.3578 42.3467C26.9024 43.1926 25.8929 44.3425 23.8145 43.9501C21.736 43.5561 21.8565 42.3773 21.8565 42.3773C21.8565 42.3773 22.4385 40.6328 22.2688 39.2366C22.0991 37.8421 26.0422 38.6744 26.0422 38.6744Z" fill="#E7A585"/>
<path d="M23.9893 30.6472C23.9893 30.6472 25.7063 32.4545 26.5055 33.37C27.3029 34.2855 27.3945 36.0537 27.3945 36.0537C27.3945 36.0537 28.7383 34.4095 28.1767 32.4969C27.6151 30.5827 26.2849 26.8594 22.9187 28.0042C19.5525 29.1491 19.4286 34.1836 19.8222 36.6788C19.8222 36.6771 21.3323 31.167 23.9893 30.6472Z" fill="#454240"/>
<path d="M22.5403 39.3929C22.5403 39.3929 24.1064 40.1335 25.6317 39.0396C25.6317 39.0396 25.2075 39.9144 24.086 40.0401C22.9628 40.1624 22.5403 39.3929 22.5403 39.3929Z" fill="#A4775F"/>
<path d="M22.0058 40.3782C22.0058 40.3782 16.948 44.8828 18.2613 47.6939C19.3811 50.0923 23.3547 48.6213 22.6981 46.1074C22.0432 43.5953 22.0058 40.3782 22.0058 40.3782Z" fill="#454240"/>
<path d="M23.3836 53.0324C23.3836 53.2074 23.2428 53.3484 23.068 53.3484C22.8932 53.3484 22.7524 53.2057 22.7524 53.0324C22.7524 52.8575 22.8949 52.7165 23.068 52.7165C23.2428 52.7148 23.3836 52.8575 23.3836 53.0324Z" fill="#48484D"/>
<path d="M45.8001 114.766C45.8001 114.766 44.7549 116.333 43.289 116.671C41.8231 117.009 40.3792 117.547 40.3673 118.473C40.3555 119.398 44.6056 119.952 46.2837 119.018C48.7879 117.625 49.0424 118.045 49.319 117.348C49.5973 116.652 48.9848 114.789 49.0034 114.568C49.0272 114.293 45.8001 114.766 45.8001 114.766Z" fill="#353A3D"/>
<path d="M45.9627 113.993C45.9627 113.993 45.7726 114.749 45.7998 114.766C45.8286 114.782 49.1032 115.172 49.0048 114.566C48.9251 114.073 48.8097 113.54 48.8097 113.54L45.9627 113.993Z" fill="#82807F"/>
<path d="M56.8217 114.663C56.8217 114.663 56.0769 116.161 54.8027 116.671C53.4419 117.216 52.3493 117.843 52.3747 118.744C52.4002 119.646 55.7036 120.562 58.1061 118.829C59.6246 117.735 60.1065 117.73 60.3491 117.041C60.5934 116.351 59.9266 114.561 59.9351 114.345C59.947 114.077 56.8217 114.663 56.8217 114.663Z" fill="#353A3D"/>
<path d="M56.7843 113.885C56.7843 113.885 56.7928 114.648 56.8216 114.663C56.8505 114.676 60.0148 114.938 59.935 114.345C59.8705 113.873 59.6279 113.304 59.6279 113.304L56.7843 113.885Z" fill="#82807F"/>
<path d="M45.179 68.1461C45.179 68.1461 42.2387 81.1316 41.5668 85.0875C40.995 88.4541 40.5386 91.9599 40.8135 94.3906C41.1528 97.3987 45.4081 112.995 45.2299 113.876C45.0518 114.758 49.682 114.017 49.682 114.017C49.682 114.017 46.4465 96.6224 47.0929 93.385C47.5714 90.9866 51.7656 75.0576 52.4086 75.8746C53.0516 76.6916 53.8491 90.9085 54.3241 93.2678C54.8009 95.6271 56.2618 114.274 56.2618 114.274C56.2618 114.274 59.5296 114.756 60.4034 114.017C60.4034 114.017 60.8004 98.0951 60.4967 93.6721C60.3813 91.9854 62.4699 73.4558 59.7909 65.9958C58.3758 62.0517 45.179 68.1461 45.179 68.1461Z" fill="#2D3132"/>
<path d="M32.3792 56.3412C34.4746 56.0456 41.0696 58.9706 41.6685 58.7497C42.0808 58.5986 43.0479 55.4443 43.7385 53.0562C44.1474 51.6447 44.4596 50.4998 44.502 50.4047L44.5037 50.3996C44.4969 50.4625 44.39 51.5428 44.5258 52.9611C44.5342 53.0528 44.5444 53.1462 44.5546 53.2413C44.558 53.2651 44.5614 53.2906 44.5631 53.3161C44.6242 53.8239 44.7192 54.3658 44.86 54.9144C45.0687 55.7229 45.1688 56.7879 45.2061 57.9124V57.9175C45.2061 57.9259 45.2061 57.9344 45.2078 57.9429C45.2078 57.9684 45.2095 57.9939 45.2095 58.0211C45.2095 58.0313 45.2112 58.0414 45.2112 58.0533C45.2706 60.0984 45.1281 62.3014 45.0704 63.4751C44.9788 65.2926 45.576 66.1113 45.593 66.1334L46.2241 66.0451L46.6805 65.9805L46.6856 65.9788L47.2947 65.8939L49.6854 65.5576L50.5507 65.4353L50.756 65.4064L52.2711 65.1941L56.5433 64.5928L57.0116 64.5266L57.205 64.4994L58.8152 64.2718L59.5431 64.1699H59.5465C59.5465 64.1699 60.1658 59.7791 60.2116 57.4062C60.254 55.2269 61.4196 50.8005 61.6096 50.0922C61.6113 50.0871 61.613 50.082 61.613 50.0769C61.6147 50.0701 61.6164 50.0633 61.6181 50.0582C61.6215 50.0463 61.6249 50.0361 61.6266 50.0276C61.6283 50.0225 61.63 50.0174 61.63 50.0124C61.63 50.0107 61.63 50.009 61.6317 50.009C61.6317 50.0073 61.6334 50.0056 61.6334 50.0039C61.6351 49.9988 61.6351 49.9971 61.6351 49.9971C61.6351 49.9971 65.1218 53.6643 65.7987 55.2643C66.0057 55.7501 66.6352 57.0699 67.4394 58.6784C67.9891 57.6287 68.3319 56.9 68.3319 56.7166C68.3319 56.6945 68.3319 56.6707 68.3302 56.6452C68.2793 55.0639 66.6233 48.6484 65.3152 44.4581C64.3006 42.4164 63.4251 40.7637 63.1451 40.5633C62.7193 40.2575 60.9293 39.4898 59.3683 38.8698C59.3174 38.8494 59.2665 38.829 59.2156 38.8104C59.0697 38.7526 58.9255 38.6965 58.7864 38.6422C58.7168 38.615 58.6472 38.5895 58.5794 38.5624C58.542 38.5488 58.5047 38.5352 58.4691 38.5199C58.4385 38.508 58.4097 38.4978 58.3791 38.4859C57.5987 38.1887 57.0048 37.9815 56.8827 37.9747C56.8623 37.973 56.8301 37.973 56.786 37.9747C56.7351 37.9764 56.6672 37.9781 56.5891 37.9832C55.6237 38.0392 52.7428 38.3093 51.8147 38.3976C51.6467 38.4129 51.5415 38.4231 51.5263 38.4248C51.5246 38.4248 51.5246 38.4248 51.5246 38.4248C51.5246 38.4248 51.0834 38.6269 50.4183 38.9309L50.3572 38.9598C49.9551 39.145 49.4902 39.3896 48.9982 39.6596C48.0345 40.1879 46.969 40.8062 46.0867 41.2274C45.2214 41.6402 44.0354 42.2143 43.9336 42.2941L39.546 54.9586L31.9347 53.5657L32.3792 56.3412Z" fill="#DDCAC3"/>
<path d="M45.5929 66.1316C45.5929 66.1316 45.2723 66.5172 45.179 68.1461C45.179 68.1461 58.3944 66.6021 59.7907 65.994C59.7907 65.994 59.845 64.1987 59.5498 64.1664C59.2241 64.1324 45.5929 66.1316 45.5929 66.1316Z" fill="#495055"/>
<path d="M56.8642 37.5195C56.8235 39.5951 52.8074 40.7314 52.8074 40.7314C52.8074 40.7314 51.1277 38.6235 51.5281 38.4214C51.6859 38.3416 51.7504 38.0273 51.7691 37.674C51.7877 37.3377 51.7657 36.9674 51.7453 36.733C51.7334 36.5853 51.7215 36.4918 51.7215 36.4918C51.7215 36.4918 52.295 35.8854 53.0246 35.1636C54.3005 33.9015 56.0532 32.2828 56.0566 32.9266C56.0566 32.9605 56.0515 33.0013 56.0413 33.0489C55.7359 34.496 56.8642 37.5195 56.8642 37.5195Z" fill="#E7A585"/>
<path d="M56.5298 64.4858C56.5298 64.4858 56.8182 66.3067 56.8437 66.7823L57.4545 66.66C57.4545 66.66 57.2865 64.7338 57.1864 64.4111L56.5298 64.4858Z" fill="#353A3D"/>
<path d="M46.6958 65.9193C46.6958 65.9193 46.4633 67.5754 46.4583 68.2004L47.1047 68.1155C47.1047 68.1155 47.237 66.0484 47.3117 65.8326L46.6958 65.9193Z" fill="#353A3D"/>
<path d="M55.3165 34.4755C55.3081 34.4874 55.1384 34.7438 54.8466 35.109C54.2307 35.8853 53.0718 37.1609 51.7688 37.6721C51.7874 37.3358 51.7654 36.9655 51.745 36.7311C51.611 36.7277 51.4787 36.7125 51.3463 36.6836C51.7043 36.0585 52.2201 35.4029 52.2201 35.4029L53.026 35.1617L55.3165 34.4755Z" fill="#A4775F"/>
<path d="M56.0871 32.9536C55.7393 33.7094 55.4101 34.2581 55.3168 34.4755C55.2557 34.6165 55.0894 34.8475 54.8485 35.109C54.1868 35.8224 52.9567 36.7634 51.747 36.7312C51.6129 36.7278 51.4806 36.7125 51.3483 36.6836C50.8596 36.5766 50.2827 36.349 49.9655 35.7273C47.4595 30.8168 49.2732 26.8014 49.2732 26.8014C49.2732 26.8014 56.1227 24.8616 57.195 26.9271C57.9484 28.376 56.9032 31.1769 56.0871 32.9536Z" fill="#E7A585"/>
<path d="M49.2732 26.8015C49.2732 26.8015 48.6369 26.7658 48.4791 25.5582C48.3231 24.3658 48.6386 24.0345 48.6386 24.0345C48.6386 24.0345 51.467 22.8489 52.4816 22.6961C53.4979 22.5415 55.9937 22.3937 56.5791 23.0647C56.5791 23.0647 58.0009 22.7334 58.3895 25.0978C59.0037 28.8483 56.2941 32.4883 56.2941 32.4883C56.2941 32.4883 56.3178 30.039 55.7783 29.7145C55.2387 29.3901 54.7721 30.1613 54.7721 30.1613L53.6676 30.36C53.6676 30.36 55.3439 26.7353 53.3333 26.6011C51.3245 26.4669 50.4252 27.0121 49.2732 26.8015Z" fill="#434343"/>
<path d="M54.8041 29.1846C54.9093 28.1061 56.8588 27.6933 56.7281 28.8245C56.5975 29.9558 55.6371 31.0429 55.1943 31.0038C54.7498 30.9664 54.7243 30.0067 54.8041 29.1846Z" fill="#E7A585"/>
<path d="M68.3352 56.7115C68.3352 56.6894 68.3352 56.6656 68.3335 56.6401C68.2962 55.0622 67.5208 48.7435 66.2127 44.5532C65.5781 42.5183 65.4322 41.0966 65.1862 40.92C64.7603 40.6142 60.975 39.4932 59.37 38.863C59.3191 38.8426 59.2682 38.8222 59.2173 38.8036C59.0713 38.7458 58.9271 38.6897 58.788 38.6354C58.7184 38.6082 58.6489 38.5827 58.581 38.5556C58.5437 38.542 58.5063 38.5284 58.4707 38.5131C58.4402 38.5012 58.4113 38.491 58.3808 38.4791C58.3791 38.4808 58.3757 38.4842 58.3723 38.4876C58.2298 38.6473 57.4866 39.4932 56.5993 40.7552C54.9416 43.1162 52.78 46.9397 53.1109 50.4693C53.2161 51.6022 53.3484 53.2294 53.569 55.0554C53.5877 55.2116 53.608 55.3679 53.6284 55.5276C53.681 55.9471 53.7404 56.3769 53.8048 56.8117C53.8439 57.0716 53.8829 57.3348 53.9253 57.5998C54.3647 60.3362 55.7408 62.2029 56.9624 64.4348C56.9725 64.4535 56.9827 64.4722 56.9946 64.4909C56.9997 64.5011 57.0065 64.513 57.0116 64.5231C57.037 64.5707 57.0642 64.6183 57.0896 64.6658C57.132 64.744 57.1728 64.8221 57.2152 64.9019C57.2389 64.9478 57.2627 64.9919 57.2864 65.0378C57.5206 65.4862 57.7496 65.9465 57.9719 66.4085C58.1161 66.7058 58.2569 67.0047 58.3944 67.3037C58.4079 67.3343 58.4232 67.3648 58.4368 67.3971C58.4368 67.3971 58.6624 67.9203 58.9509 68.5929C59.0561 68.8392 59.1714 69.1059 59.2868 69.3742C59.3666 69.5577 59.4446 69.7428 59.521 69.9229C59.5888 70.0791 59.6533 70.2337 59.7161 70.3781C59.8552 70.7025 59.9757 70.9862 60.0605 71.1832C60.1233 71.331 60.1657 71.4312 60.1793 71.4652C60.6001 72.5183 60.9038 73.3319 61.0429 73.7107C61.0989 73.8635 61.1277 73.9468 61.1277 73.9468L65.3559 71.6112C66.1584 71.2087 65.7393 69.043 65.4373 68.1971C65.1862 67.4939 64.8333 66.7398 64.4363 65.9601C64.2734 65.6408 64.1037 65.3181 63.9289 64.9936C65.2524 62.6802 66.591 60.2937 67.4411 58.6716C67.9925 57.6236 68.3352 56.8949 68.3352 56.7115ZM61.6147 50.0888C61.6164 50.0837 61.6181 50.0786 61.6181 50.0735C61.6198 50.0667 61.6215 50.0599 61.6232 50.0548C61.6265 50.0446 61.6282 50.0344 61.6316 50.0242C61.6333 50.0191 61.635 50.014 61.635 50.009C61.635 50.0073 61.635 50.0056 61.6367 50.0056C61.6367 50.0039 61.6384 50.0022 61.6384 50.0005C61.6384 50.0005 63.6948 53.2192 63.5404 56.0134C63.5167 56.4482 63.084 57.5489 62.4545 58.957C62.4545 58.9587 62.4545 58.9587 62.4528 58.9604C62.2238 59.4733 61.9693 60.0288 61.6978 60.608C61.6876 60.5842 61.6774 60.5587 61.6673 60.5349C61.2736 59.5735 61.0174 58.6716 61.0174 57.8852C61.0191 57.8852 61.1922 51.7517 61.6147 50.0888Z" fill="#3865A7"/>
<path d="M29.5696 52.0489L39.1422 54.1364L43.7046 42.1904C43.8047 42.1106 45.1146 41.4057 45.9799 40.9929C46.8808 40.5632 48.0227 40.0332 49.0356 39.5644C49.5191 39.3402 49.9739 39.1313 50.359 38.9547L50.3912 38.9801C50.3912 38.9801 49.8262 40.8638 49.095 45.5655V45.5671C49.0695 45.7251 49.0458 45.8865 49.0203 46.0495C49.0186 46.0682 49.0152 46.0886 49.0118 46.1073C48.9949 46.216 48.9779 46.3264 48.9626 46.4385C48.9609 46.4521 48.9592 46.4657 48.9558 46.4776C48.944 46.5523 48.9338 46.6287 48.9236 46.7052C48.8965 46.8903 48.8693 47.0806 48.8405 47.2725C48.5147 49.5605 48.0566 53.4553 47.6172 57.3874V57.3891C47.2693 60.4873 46.4787 63.6687 46.2259 66.0416C46.2259 66.0433 46.2259 66.045 46.2259 66.0467C46.1767 66.5121 46.0579 67.1321 45.8967 67.8302C45.8781 67.91 45.8594 67.9898 45.8407 68.0714C45.1332 71.0659 43.7572 75.3072 43.7572 75.3072L43.3568 74.937L42.1708 73.8414C41.8976 73.59 41.7941 73.2027 41.9044 72.8477C42.5627 70.7228 44.7973 63.205 45.2079 57.9191C45.2079 57.9174 45.2079 57.9157 45.2079 57.914C45.3368 56.2528 44.8516 54.6884 44.5699 53.2056C44.5648 53.2192 44.5597 53.2311 44.5563 53.2446C44.3205 53.9003 44.0609 54.612 43.7979 55.3067C43.0921 57.17 42.371 58.8958 42.069 59.0062C41.4005 59.2525 28.7959 55.8027 28.7076 55.3067L29.5696 52.0489Z" fill="#3865A7"/>
<path d="M57.2697 43.6326L55.3168 44.7349L56.1516 45.5876L53.9289 57.5998C53.4759 54.7836 53.2689 52.1101 53.1162 50.471C52.6055 45.0135 58.0468 38.8562 58.3844 38.4791C58.6457 38.5793 58.9273 38.688 59.2192 38.8036L57.2697 43.6326Z" fill="#4D6C9E"/>
<path d="M50.4217 38.9257C50.4217 38.9257 49.6921 41.3122 48.8404 47.269C48.5146 49.557 48.0565 53.4518 47.6171 57.384L47.1624 46.1327L48.0938 45.1238L47.2658 44.0893L49.0355 39.5644C49.519 39.3402 49.9738 39.1312 50.3589 38.9546L50.4217 38.9257Z" fill="#4D6C9E"/>
<path d="M58.4824 38.5029L56.8621 37.5177C56.8621 37.5177 56.8162 38.4077 52.8053 40.7297L53.9438 43.9417L58.4824 38.5029Z" fill="#F3E1D8"/>
<path d="M51.7401 37.9662C51.7401 37.9662 51.8029 38.9259 52.8073 40.7297L50.5846 43.6309L50.4218 38.9242L51.7401 37.9662Z" fill="#F3E1D8"/>
<path d="M52.8125 40.7314C52.8125 40.7314 53.2435 42.4571 53.0874 42.9395C53.0874 42.9395 52.1407 43.2843 51.4586 42.8529C51.4603 42.8529 51.9422 41.6452 52.8125 40.7314Z" fill="#FE5F5F"/>
<path d="M50.5848 65.6153C50.3439 64.3974 50.5729 60.7506 50.5831 60.5961L50.7901 60.6097C50.7884 60.647 50.5526 64.3856 50.7884 65.5762L50.5848 65.6153Z" fill="#AD9F99"/>
<path d="M52.2727 65.0548C52.2727 65.0548 50.3283 65.2875 49.6853 65.4472L49.7701 67.6298L52.3169 67.3581L52.2727 65.0548Z" fill="#68737A"/>
<path d="M51.8468 42.6982C51.8468 42.6982 49.6785 48.1812 50.0314 54.3181C50.3979 60.6809 51.0002 62.9875 51.0002 62.9875L52.3372 64.6657L52.9276 62.6019C52.9276 62.6019 51.1325 54.4896 52.2914 46.5964C52.5018 45.1662 52.8122 42.4553 52.8122 42.4553L51.8468 42.6982Z" fill="#FE5F5F"/>
<path d="M58.3639 68.5912C58.3639 68.5912 57.899 69.5237 57.4324 69.6782C56.9675 69.8328 56.2888 70.5904 56.2888 70.5904L59.5651 72.3178C59.5651 72.3178 60.4372 70.609 60.4762 69.522C60.5153 68.4366 58.3639 68.5912 58.3639 68.5912Z" fill="#E7A585"/>
<path d="M58.0518 68.6794L57.8346 69.116C57.8346 69.116 59.9164 70.6396 60.4763 70.7364L60.6681 70.1538L58.0518 68.6794Z" fill="#DDCAC3"/>
<path d="M57.8346 68.6982C57.8346 68.6982 59.3938 69.9891 60.7088 70.5853L65.1286 62.6258L62.8381 58.1926C62.8381 58.1926 57.9381 67.9219 57.8346 68.6982Z" fill="#597EB8"/>
<path d="M44.6326 50.4217C44.5596 51.8943 44.5715 53.2022 44.5715 53.2022C44.5715 53.2022 44.5715 53.2022 44.5715 53.2039C44.5715 53.2107 44.5698 53.2515 44.5664 53.316C44.563 53.2906 44.5596 53.2668 44.5579 53.2413C44.3221 53.897 44.0625 54.6086 43.7995 55.3034C43.7384 54.4999 43.7231 53.7509 43.7401 53.0562C43.8453 48.927 45.1433 46.763 45.1433 46.763C44.843 47.4832 44.7004 49.0272 44.6326 50.4217Z" fill="#2F4261"/>
<path d="M64.4381 65.9617L60.8988 70.2404L63.9308 64.9952C64.1055 65.3197 64.2752 65.6441 64.4381 65.9617Z" fill="#2F4261"/>
<path d="M38.7401 60.5977H30.5706C30.0107 60.5977 29.5237 60.2138 29.3914 59.6686L25.8419 44.9998C25.657 44.2355 26.2355 43.5 27.0211 43.5H35.1906C35.7505 43.5 36.2375 43.8839 36.3698 44.4291L39.9193 59.0979C40.1042 59.8622 39.5256 60.5977 38.7401 60.5977Z" fill="#313555"/>
<path d="M28.7467 56.5196C29.1471 56.1493 29.9174 55.9336 30.5774 55.492C31.2374 55.0504 30.686 54.5951 30.686 54.5951C31.3646 54.3624 31.2917 54.0516 31.2052 53.841C31.0881 53.5556 30.3466 53.6371 30.3466 53.6371C30.3466 53.6371 31.0117 53.4894 31.2849 53.3688C31.5581 53.2482 31.4647 52.7709 31.0457 52.6197C30.6249 52.4685 28.9112 52.8915 28.9112 52.8915C28.9112 52.8915 29.1912 52.7539 30.0361 52.3292C30.8811 51.9046 31.066 51.519 30.5689 51.3339C30.2228 51.2048 29.5424 51.4749 28.236 52.353C27.2519 53.0155 27.3316 53.1004 27.3316 53.1004C27.3316 53.1004 28.2699 56.9629 28.7467 56.5196Z" fill="#E7A585"/>
<path d="M63.9785 116.19C63.9785 116.19 62.0324 118.928 62.2988 119.361C62.5652 119.794 64.6131 119.857 65.8584 119.361C67.1055 118.865 67.1343 115.657 67.6976 114.277C67.9335 113.7 67.4279 111.996 66.7187 111.872C66.0077 111.748 65.2358 112.112 65.2358 112.112C65.2358 112.112 65.9738 114.055 63.9785 116.19Z" fill="#FE5F5F"/>
<path d="M65.2238 112.091C65.2238 112.091 64.8149 113.257 64.6639 114.371C64.54 115.295 63.2777 117.255 63.3371 117.503C63.3964 117.751 64.9981 117.975 65.6513 117.336C66.3046 116.698 66.7236 114.838 66.8678 113.725C67.0019 112.689 67.1699 112.178 67.1699 112.178C67.1699 112.178 65.8464 111.408 65.2238 112.091Z" fill="#E7A585"/>
<path d="M80.9229 116.234C80.9229 116.234 79.0464 118.926 79.3128 119.361C79.5792 119.794 81.6271 119.857 82.8724 119.361C84.1178 118.865 84.1483 115.657 84.7116 114.277C84.9475 113.7 84.4419 111.996 83.7326 111.872C83.0234 111.748 82.1904 112.137 82.1904 112.137C82.1904 112.137 82.9182 114.101 80.9229 116.234Z" fill="#FE5F5F"/>
<path d="M82.1923 112.139C82.1923 112.139 82.0447 113.409 81.8072 114.308C81.5696 115.206 80.2938 117.253 80.3531 117.501C80.4125 117.749 82.0142 117.973 82.6674 117.335C83.3206 116.696 83.8245 114.845 83.8839 113.724C83.9433 112.603 83.7363 111.872 83.7363 111.872C83.7363 111.872 82.815 111.458 82.1923 112.139Z" fill="#E7A585"/>
<path d="M72.8148 67.5652C72.8148 67.5652 71.1435 75.6843 70.7601 77.7277C70.3766 79.7711 69.3026 89.672 69.1873 91.3552C69.0719 93.0385 67.4448 99.3809 67.5211 99.9822C67.5975 100.584 65.1068 112.66 65.1068 112.66C65.1068 112.66 65.9568 113.375 66.8543 112.725C67.3158 112.39 72.3193 101.419 72.3193 98.4128C72.3193 94.2581 75.2614 88.8329 75.6397 87.9038C79.1654 79.2683 78.4715 76.627 78.9313 76.0665C79.3911 75.506 79.4318 76.413 79.6999 77.6564C79.968 78.898 80.5432 89.6397 80.8893 91.0036C81.2354 92.3659 80.9656 96.9758 81.159 99.3011C81.3508 101.626 82.1923 112.141 82.1923 112.141C82.1923 112.141 82.8456 113.209 83.7601 112.168C83.9569 111.943 85.3397 100.454 85.3787 97.6892C85.4177 94.9239 85.4584 91.1089 85.5314 89.9132C86.2423 78.453 87.9899 76.8156 85.2379 68.7049C80.085 53.5181 72.8148 67.5652 72.8148 67.5652Z" fill="#E7A585"/>
<path d="M84.0334 65.2959C84.0334 65.2959 88.7925 72.2549 86.743 87.0562C86.743 87.0562 75.455 88.6596 69.4063 85.2013C69.4063 85.2013 71.9072 69.9398 72.8132 67.5652C73.721 65.1906 84.0334 65.2959 84.0334 65.2959Z" fill="#FE5F5F"/>
<path d="M67.7499 114.036V116.903H67.3953V114.688L67.7499 114.036Z" fill="#FE5F5F"/>
<path d="M84.7662 114.036V116.903H84.4099V114.688L84.7662 114.036Z" fill="#FE5F5F"/>
<path d="M78.39 34.4417C78.39 34.4417 75.202 37.6554 76.2879 41.7948C77.3737 45.9342 79.1179 45.9562 81.0403 44.1761C82.9626 42.3961 84.0943 40.5225 84.3488 38.4418C84.6033 36.3611 81.3015 31.5745 78.39 34.4417Z" fill="#E7A585"/>
<path d="M77.7673 48.246C77.7673 48.246 78.2389 47.164 78.5715 45.9444C78.6292 45.7287 78.6835 45.5096 78.7293 45.2922C78.8922 44.5261 78.9583 43.7703 78.7836 43.2522C78.2763 41.749 81.9716 42.7902 81.9716 42.7902C81.9716 42.7902 81.2556 46.7665 81.9716 48.1084C82.6876 49.4485 77.7673 48.246 77.7673 48.246Z" fill="#E7A585"/>
<path d="M87.1328 50.1397C86.5509 48.9779 86.1165 48.6025 84.9916 48.2475C84.3622 48.0488 81.5525 47.3167 81.5525 47.3167L78.1761 47.1927C78.1761 47.1927 75.8533 47.58 74.0531 48.205C72.2513 48.8301 69.8912 52.2459 69.8912 52.2459C69.8912 52.2459 73.1471 59.8996 73.7715 62.0958C74.3942 64.2921 73.9802 67.6909 73.9802 67.6909C77.8842 69.8175 84.1433 67.4837 84.1433 67.4837C83.6682 65.7681 83.6496 63.7638 83.899 62.3421C83.9278 62.174 83.9617 62.0143 83.9974 61.8648C84.0313 61.7273 84.0771 61.5319 84.1314 61.3128C84.1331 61.3026 84.1365 61.2924 84.1382 61.2839C86.6204 61.5387 88.9483 61.6423 89.0094 61.1429C89.2825 58.8975 87.9337 51.738 87.1328 50.1397ZM85.4124 58.8669C85.3123 58.8516 85.1002 58.8499 84.8746 58.8312C85.1494 58.0618 85.4565 57.3789 85.4565 57.3789C85.6347 57.8698 86.3032 58.9994 85.4124 58.8669Z" fill="#EBD9D2"/>
<path d="M79.4301 36.7534C79.4301 36.7534 80.9537 39.5288 81.9022 40.5225C82.8489 41.5161 82.7386 42.306 82.7386 42.306C82.7386 42.306 86.4289 37.747 83.7973 34.9954C81.1641 32.2437 77.7691 33.3529 76.7765 35.758C75.7839 38.1632 76.147 41.1 76.147 41.1C76.147 41.1 76.1742 38.2804 79.4301 36.7534Z" fill="#D28853"/>
<path d="M80.4361 33.8488C80.4361 33.8488 80.068 31.8174 83.2492 31.0105C86.4305 30.202 87.8608 33.8726 87.4689 36.1113C87.077 38.35 84.3572 44.0283 85.8316 44.7672C87.3077 45.5061 87.8829 43.9128 87.8829 43.9128C87.8829 43.9128 87.4214 46.7052 85.3701 46.0598C83.3188 45.4143 83.5954 40.8741 83.9042 39.0668C84.2147 37.2562 80.4361 33.8488 80.4361 33.8488Z" fill="#D28853"/>
<path d="M81.4612 43.7736C81.4493 43.8025 80.6451 45.6556 78.5717 45.9443C78.6294 45.7286 78.6837 45.5095 78.7295 45.2921C78.7295 45.2921 79.8663 45.5214 81.4612 43.7736Z" fill="#A4775F"/>
<path d="M85.4127 57.4045C85.4127 57.4045 85.26 57.7255 84.8443 58.9875C84.4202 55.4392 84.6424 53.5929 84.6424 53.5929C84.6882 55.4902 85.4127 57.4045 85.4127 57.4045Z" fill="#CFBDB7"/>
<path d="M80.9317 33.4226C80.9317 33.4226 83.19 33.8574 84.3166 35.6987C84.3166 35.6987 84.0875 34.0307 82.9643 33.55C81.8394 33.0693 80.9317 33.4226 80.9317 33.4226Z" fill="#EBD9D2"/>
<path d="M84.1301 61.3129C84.0758 61.532 84.03 61.7273 83.996 61.8649C83.9587 62.0144 83.9265 62.174 83.8976 62.3422C82.4996 61.5812 81.4951 60.985 81.4951 60.985C81.8701 61.07 84.1301 61.3129 84.1301 61.3129Z" fill="#CFBDB7"/>
<path d="M81.7409 47.366L77.7673 50.6085L78.1762 47.1927C78.1762 47.1927 80.4938 46.6916 81.7409 47.366Z" fill="#E7A585"/>
<path d="M78.9159 50.0583L77.7673 50.6087L81.6696 46.7359L78.9159 50.0583Z" fill="#D5C4BD"/>
<path d="M84.3639 61.0326C83.8175 63.3019 85.84 68.4094 85.84 68.4094L81.829 69.6647C81.2521 69.8447 80.6447 69.4914 80.5175 68.8986C79.9796 66.4 78.7207 60.2478 78.5714 56.8286C78.3796 52.465 81.5525 47.3167 81.5525 47.3167C87.1922 48.2849 85.6466 56.8286 85.6466 56.8286C85.6466 56.8286 85.4413 57.3671 85.1681 58.2079C85.0985 58.4185 85.0256 58.6495 84.9509 58.8958C84.7575 59.526 84.5505 60.2597 84.3639 61.0326Z" fill="#7099D8"/>
<path d="M77.7776 47.3795L77.8472 47.1927C77.8472 47.1927 74.9594 47.6326 73.4901 48.3664C72.0225 49.1002 69.2111 52.893 69.2111 52.893L72.8861 57.7509C72.8912 61.4843 72.2855 68.1223 72.2855 68.1223L73.9669 69.0922C74.4182 69.3521 74.9849 69.0327 74.9934 68.5113C75.0409 65.9872 75.1546 59.993 75.2139 57.0885C75.2903 53.3551 77.9524 47.315 77.9524 47.315C77.893 47.3371 77.8353 47.3574 77.7776 47.3795Z" fill="#7099D8"/>
<path d="M72.5399 64.8848C72.5399 64.8848 75.3122 64.9935 75.7432 64.8848C76.1742 64.7761 79.05 63.5277 79.2231 62.2945C79.3962 61.0614 72.5399 63.4003 72.5399 63.4003V64.8848Z" fill="#E7A585"/>
<path d="M81.1385 61.0326L69.8912 59.7145L74.9727 63.8522L81.1385 61.0326Z" fill="#B5A5A0"/>
<path d="M74.973 63.8522L81.1387 61.7494V61.0326L74.7643 63.0794L74.973 63.8522Z" fill="#EBD9D2"/>
<path d="M77.8725 58.9638C77.8725 58.9638 76.9427 58.9638 76.4218 58.8585C76.018 58.777 75.017 58.8891 74.7608 59.1167C74.5046 59.3426 73.6936 60.9223 73.5392 61.0174C73.3865 61.1142 73.6172 61.3367 73.887 61.2246C73.887 61.2246 74.1347 61.9159 74.7455 61.656C75.3563 61.3979 75.772 60.8322 76.091 60.7337C76.4116 60.6335 78.2746 60.1324 78.2746 60.1324C78.2746 60.1324 78.351 58.7957 77.8725 58.9638Z" fill="#E7A585"/>
<path d="M78.3885 46.5627L76.2473 49.9564L75.214 50.6087L77.6233 47.2285L78.3885 46.5627Z" fill="#F8E5DD"/>
<path d="M76.247 49.9564L77.7672 50.6087L78.1761 47.1929L78.3882 46.5627L76.247 49.9564Z" fill="#D5C4BD"/>
<path d="M72.8773 63.2986C72.8773 63.2986 72.762 64.7322 72.8773 65.0328C72.8773 65.0328 65.9413 64.3398 65.2949 63.3682C64.6484 62.3967 64.6705 61.2179 64.6705 61.2179L72.8773 63.2986Z" fill="#F09E4A"/>
<path d="M74.9729 63.8522L71.6932 51.6446L59.2209 50.3266L62.6397 61.5642L74.9729 63.8522Z" fill="#EBD9D2"/>
<path d="M81.6696 46.7359L78.9159 50.0583L80.4225 51.4036L82.0497 47.4255L81.6696 46.7359Z" fill="#F8E5DD"/>
<path d="M85.26 57.9259L85.1683 58.2079C85.0988 58.4185 85.0258 58.6495 84.9512 58.8958C84.4184 59.064 79.812 58.7243 79.812 58.7243C79.812 58.7243 83.6668 57.8189 85.26 57.9259Z" fill="#3865A7"/>
<path d="M84.9954 58.8059C84.2539 58.7499 83.0374 58.67 82.0431 58.6666C80.4958 58.6598 77.8473 58.8331 77.8473 58.8331L78.1628 60.4892C78.1628 60.4892 82.8525 61.2518 85.4145 61.4319C85.4145 61.4319 88.7942 61.8208 89.0453 61.3164C89.2965 60.8119 88.9622 57.5694 88.4125 54.6495C87.8628 51.728 87.2978 50.0464 86.6259 49.1445C85.954 48.2426 82.4028 47.5394 82.4028 47.5394L85.4145 57.408C85.4145 57.408 85.8471 58.2878 85.8233 58.6683C85.8166 58.7838 85.7368 58.8382 85.6282 58.8586C85.5519 58.8518 85.3856 58.8382 85.1566 58.8195L84.9954 58.8059Z" fill="#7099D8"/>
</svg>
