<svg width="144" height="144" viewBox="0 0 144 144" fill="none" xmlns="http://www.w3.org/2000/svg">
<g opacity="0.61">
<g opacity="0.61">
<g opacity="0.61">
<path opacity="0.61" d="M99.5068 83.3876L103.395 82.371C104.195 82.1608 105.016 82.6446 105.226 83.4452L106.013 86.452C107.121 86.4635 108.225 86.6161 109.299 86.907L110.871 84.2257C111.289 83.5115 112.21 83.2696 112.925 83.69L116.392 85.7204C117.106 86.138 117.348 87.0596 116.928 87.7739L115.358 90.4552C116.136 91.25 116.81 92.14 117.363 93.099L120.369 92.3128C121.17 92.1025 121.994 92.5864 122.201 93.387L123.218 97.275C123.428 98.0756 122.944 98.8964 122.144 99.1067L119.137 99.8929C119.125 101.002 118.973 102.105 118.682 103.179L121.363 104.751C122.077 105.169 122.319 106.091 121.899 106.805L119.868 110.272C119.451 110.987 118.529 111.229 117.815 110.808L115.134 109.239C114.339 110.016 113.449 110.69 112.49 111.243L113.276 114.25C113.486 115.05 113.002 115.874 112.202 116.081L108.314 117.098C107.513 117.308 106.692 116.824 106.482 116.024L105.696 113.017C104.587 113.006 103.484 112.853 102.41 112.562L100.84 115.243C100.423 115.958 99.501 116.199 98.7868 115.779L95.3193 113.749C94.605 113.331 94.3631 112.409 94.7836 111.695L96.3561 109.014C95.5785 108.219 94.9045 107.332 94.3516 106.37L91.3477 107.153C90.5471 107.364 89.7234 106.88 89.5161 106.079L88.4994 102.191C88.2892 101.391 88.773 100.57 89.5737 100.359L92.5775 99.5761C92.5919 98.4673 92.7445 97.3643 93.0325 96.29L90.3513 94.7176C89.637 94.3 89.3951 93.3784 89.8156 92.6641L91.846 89.1966C92.2665 88.4824 93.1852 88.2433 93.8994 88.6609L96.5807 90.2305C97.3756 89.4529 98.2655 88.779 99.2245 88.226L98.4383 85.2193C98.2252 84.4187 98.7061 83.5979 99.5068 83.3876ZM109.621 87.7105L109.365 87.6356C108.187 87.2929 106.972 87.123 105.751 87.1345L105.486 87.1374L104.567 83.618C104.452 83.1803 104.005 82.9182 103.568 83.0334L99.6796 84.05C99.2418 84.1652 98.9797 84.6116 99.0949 85.0494L100.014 88.5688L99.7804 88.6955C98.7119 89.283 97.7327 90.0232 96.8716 90.8987L96.6844 91.0888L93.5452 89.2513C93.1564 89.0238 92.6524 89.1534 92.4249 89.5451L90.3945 93.0126C90.1669 93.4014 90.2965 93.9054 90.6882 94.1329L93.8274 95.9732L93.7525 96.2296C93.4098 97.4075 93.2399 98.6228 93.2514 99.844L93.2543 100.109L89.7378 101.028C89.3001 101.143 89.038 101.589 89.1532 102.027L90.1698 105.915C90.285 106.353 90.7314 106.615 91.1692 106.5L94.6857 105.581L94.8124 105.814C95.3999 106.886 96.14 107.862 97.0156 108.72L97.2057 108.907L95.3653 112.047C95.1378 112.435 95.2674 112.939 95.6591 113.167L99.1266 115.197C99.5154 115.425 100.017 115.295 100.247 114.903L102.084 111.764L102.341 111.839C103.519 112.182 104.734 112.352 105.955 112.34L106.22 112.337L107.139 115.857C107.254 116.295 107.7 116.557 108.138 116.441L112.026 115.425C112.464 115.31 112.726 114.863 112.611 114.425L111.692 110.906L111.925 110.779C112.994 110.192 113.973 109.452 114.831 108.576L115.018 108.386L118.158 110.223C118.546 110.451 119.05 110.321 119.278 109.93L121.308 106.462C121.536 106.073 121.406 105.569 121.015 105.342L117.875 103.502L117.95 103.245C118.293 102.067 118.463 100.852 118.451 99.6308L118.449 99.3659L121.968 98.4472C122.406 98.332 122.668 97.8856 122.553 97.4478L121.536 93.5598C121.421 93.122 120.974 92.86 120.537 92.9752L117.017 93.8939L116.888 93.6606C116.3 92.5921 115.56 91.6129 114.684 90.7547L114.494 90.5675L116.332 87.4283C116.559 87.0395 116.43 86.5355 116.038 86.308L112.57 84.2776C112.182 84.05 111.678 84.1796 111.45 84.5713L109.621 87.7105ZM103.452 90.5473C108.518 89.2254 113.717 92.2696 115.039 97.3355C116.361 102.401 113.316 107.6 108.25 108.922C103.185 110.244 97.9861 107.199 96.6613 102.134C95.3423 97.0676 98.3865 91.8692 103.452 90.5473ZM108.081 108.262C112.784 107.035 115.609 102.211 114.382 97.5083C113.155 92.8052 108.331 89.98 103.628 91.2068C98.925 92.4337 96.0997 97.2577 97.3266 101.961C98.5535 106.664 103.377 109.489 108.081 108.262Z" fill="white"/>
</g>
</g>
<g opacity="0.61">
<g opacity="0.61">
<path opacity="0.61" d="M24.3448 54.0519L28.2328 53.0353C29.0335 52.825 29.8543 53.3089 30.0645 54.1095L30.8479 57.1162C31.9567 57.1278 33.0597 57.2804 34.1339 57.5713L35.7064 54.89C36.124 54.1758 37.0456 53.9338 37.7599 54.3543L41.2274 56.3847C41.9416 56.8023 42.1835 57.7239 41.7631 58.4382L40.1935 61.1194C40.9711 61.9143 41.645 62.8042 42.1979 63.7633L45.2047 62.977C46.0053 62.7668 46.829 63.2506 47.0363 64.0513L48.053 67.9393C48.2632 68.7399 47.7794 69.5607 46.9787 69.771L43.972 70.5572C43.9605 71.666 43.8079 72.769 43.517 73.8433L46.1983 75.4158C46.9125 75.8334 47.1544 76.755 46.7339 77.4692L44.7035 80.9367C44.2859 81.651 43.3643 81.8929 42.6501 81.4724L39.9688 79.9028C39.1739 80.6804 38.284 81.3543 37.325 81.9073L38.1112 84.914C38.3215 85.7146 37.8376 86.5383 37.037 86.7457L33.149 87.7623C32.3483 87.9726 31.5275 87.4887 31.3173 86.6881L30.5311 83.6814C29.4223 83.6698 28.3192 83.5172 27.245 83.2263L25.6754 85.9076C25.2578 86.6218 24.3362 86.8638 23.6219 86.4433L20.1544 84.4129C19.4402 83.9953 19.1983 83.0737 19.6187 82.3594L21.1912 79.6782C20.4136 78.8833 19.7397 77.9962 19.1867 77.0343L16.1829 77.8177C15.3823 78.0279 14.5586 77.5441 14.3512 76.7434L13.3346 72.8554C13.1243 72.0548 13.6082 71.234 14.4088 71.0238L17.4127 70.2404C17.4271 69.1316 17.5797 68.0286 17.8677 66.9543L15.1864 65.3818C14.4722 64.9642 14.2303 64.0426 14.6507 63.3284L16.6811 59.8609C17.1016 59.1466 18.0203 58.9076 18.7346 59.3252L21.4159 60.8948C22.2107 60.1172 23.1007 59.4433 24.0597 58.8903L23.2735 55.8836C23.0632 55.083 23.5442 54.2593 24.3448 54.0519ZM34.4594 58.3719L34.2031 58.297C33.0251 57.9543 31.8098 57.7844 30.5887 57.7959L30.3237 57.7988L29.405 54.2794C29.2898 53.8417 28.8434 53.5796 28.4056 53.6948L24.5176 54.7114C24.0799 54.8266 23.8178 55.273 23.933 55.7108L24.8517 59.2302L24.6184 59.3569C23.5499 59.9444 22.5707 60.6846 21.7096 61.5601L21.5224 61.7502L18.3832 59.9127C17.9944 59.6852 17.4904 59.8148 17.2629 60.2065L15.2325 63.674C15.005 64.0628 15.1346 64.5668 15.5263 64.7943L18.6655 66.6346L18.5906 66.891C18.2479 68.0689 18.0779 69.2842 18.0895 70.5054L18.0923 70.7703L14.5759 71.689C14.1381 71.8042 13.876 72.2506 13.9912 72.6884L15.0079 76.5764C15.1231 77.0142 15.5695 77.2762 16.0072 77.161L19.5237 76.2423L19.6504 76.4756C20.2379 77.547 20.9781 78.5233 21.8536 79.3815L22.0437 79.5687L20.2034 82.7079C19.9759 83.0967 20.1055 83.6007 20.4971 83.8282L23.9647 85.8586C24.3535 86.0862 24.8546 85.9566 25.085 85.5649L26.9224 82.4257L27.1787 82.5006C28.3567 82.8433 29.572 83.0132 30.7931 83.0017L31.0581 82.9988L31.9768 86.5182C32.092 86.9559 32.5384 87.218 32.9762 87.1028L36.8642 86.0862C37.3019 85.971 37.564 85.5246 37.4488 85.0868L36.5301 81.5674L36.7634 81.4407C37.8319 80.8532 38.8111 80.113 39.6693 79.2375L39.8565 79.0474L42.9957 80.8849C43.3845 81.1124 43.8885 80.9828 44.116 80.5911L46.1464 77.1236C46.3739 76.7348 46.2443 76.2308 45.8527 76.0033L42.7135 74.163L42.7883 73.9066C43.1311 72.7287 43.301 71.5134 43.2895 70.2922L43.2866 70.0273L46.8059 69.1086C47.2437 68.9934 47.5058 68.547 47.3906 68.1092L46.3739 64.2212C46.2587 63.7834 45.8123 63.5214 45.3746 63.6366L41.8552 64.5553L41.7285 64.322C41.141 63.2535 40.4008 62.2743 39.5253 61.4161L39.3352 61.2289L41.1727 58.0897C41.4002 57.7009 41.2706 57.1969 40.8789 56.9694L37.4114 54.939C37.0226 54.7114 36.5186 54.841 36.2911 55.2327L34.4594 58.3719ZM28.2904 61.2087C33.3563 59.8868 38.5547 62.931 39.8767 67.9969C41.1986 73.0628 38.1544 78.2612 33.0885 79.5831C28.0226 80.905 22.8242 77.8609 21.4994 72.795C20.1746 67.729 23.2245 62.5306 28.2904 61.2087ZM32.9157 78.9236C37.6187 77.6967 40.444 72.8727 39.2171 68.1697C37.9903 63.4666 33.1663 60.6414 28.4632 61.8682C23.7602 63.0951 20.9349 67.9191 22.1618 72.6222C23.3915 77.3252 28.2155 80.1534 32.9157 78.9236Z" fill="white"/>
</g>
</g>
<g opacity="0.61">
<path opacity="0.61" d="M102.499 72.5098L104.357 72.9678C104.36 73.6906 104.472 74.3991 104.68 75.073L103.041 76.0637C102.73 76.2509 102.629 76.657 102.819 76.9681L104.003 78.9207C104.19 79.2317 104.596 79.3325 104.907 79.1425L106.546 78.1517C107.047 78.6471 107.623 79.0733 108.259 79.4132L107.802 81.2708C107.715 81.625 107.931 81.9821 108.285 82.0685L110.503 82.6129C110.857 82.6993 111.214 82.4833 111.301 82.129L111.759 80.2714C112.482 80.2685 113.19 80.1562 113.864 79.9489L114.855 81.5876C115.042 81.8986 115.448 81.9994 115.759 81.8093L117.712 80.6285C118.023 80.4413 118.123 80.0353 117.933 79.7242L116.943 78.0855C117.438 77.5844 117.864 77.0084 118.204 76.369L120.062 76.827C120.416 76.9134 120.773 76.6973 120.859 76.3431L121.404 74.1255C121.49 73.7713 121.274 73.4142 120.92 73.3278L119.062 72.8698C119.059 72.147 118.947 71.4385 118.74 70.7646L120.379 69.7738C120.69 69.5866 120.79 69.1806 120.6 68.8695L119.417 66.9169C119.229 66.6058 118.823 66.505 118.512 66.6951L116.874 67.6858C116.372 67.1905 115.796 66.7642 115.16 66.4244L115.618 64.5668C115.704 64.2126 115.488 63.8554 115.134 63.769L112.916 63.2247C112.562 63.1383 112.205 63.3543 112.119 63.7086L111.661 65.5662C110.938 65.569 110.229 65.6814 109.555 65.8887L108.565 64.25C108.378 63.939 107.971 63.8382 107.66 64.0282L105.708 65.209C105.397 65.3962 105.296 65.8023 105.486 66.1134L106.477 67.7521C105.981 68.2532 105.555 68.8292 105.215 69.4686L103.358 69.0106C103.003 68.9242 102.646 69.1402 102.56 69.4945L102.016 71.7121C101.929 72.0663 102.145 72.4234 102.499 72.5098ZM112.948 67.8702C115.736 68.5556 117.444 71.3722 116.758 74.1601C116.073 76.9479 113.256 78.6558 110.468 77.9703C107.681 77.2849 105.973 74.4682 106.658 71.6804C107.344 68.8897 110.16 67.1847 112.948 67.8702Z" fill="white"/>
</g>
</g>
<path d="M89.1161 106.756L58.0093 120.165C55.4144 121.285 52.4019 120.087 51.2816 117.49L22.6947 51.1718C21.5744 48.5769 22.7725 45.5644 25.3702 44.4441L56.4771 31.0348C59.072 29.9145 62.0845 31.1126 63.2048 33.7103L91.7917 100.025C92.9091 102.623 91.711 105.635 89.1161 106.756Z" fill="#292930"/>
<path d="M85.2483 104.368L58.7552 115.787C56.1603 116.908 53.1478 115.71 52.0275 113.112L25.903 52.4994C24.7827 49.9045 25.9808 46.892 28.5785 45.7717L55.0717 34.3525C57.6665 33.2322 60.679 34.4303 61.7993 37.028L87.9267 97.6434C89.0413 100.238 87.8432 103.248 85.2483 104.368Z" fill="white"/>
<path d="M84.5053 102.643L58.0121 114.062C55.4173 115.183 52.4538 114.1 51.3968 111.649L26.7152 54.3888C25.6582 51.9379 26.9053 49.0406 29.5001 47.9232L55.9933 36.504C58.5881 35.3837 61.5517 36.4666 62.6086 38.9174L87.2902 96.1776C88.3501 98.6285 87.1002 101.526 84.5053 102.643Z" fill="#C0E4FF"/>
<path d="M51.656 40.1413L35.9283 46.9208C34.9232 47.3557 33.7568 46.8892 33.3219 45.884L32.4262 43.9227L51.7913 35.4555L52.6928 37.5349C53.1248 38.5429 52.6611 39.7093 51.656 40.1413Z" fill="#292930"/>
<path d="M37.5556 44.8098C37.1581 44.8098 36.778 44.5766 36.6109 44.1878C36.3863 43.6665 36.6282 43.0617 37.1466 42.8371C37.6679 42.6124 38.2727 42.8543 38.4973 43.3756C38.722 43.8969 38.48 44.5017 37.9588 44.7263C37.8292 44.7839 37.6909 44.8098 37.5556 44.8098ZM37.5527 43.0415C37.4548 43.0415 37.3568 43.0617 37.2618 43.102C36.8874 43.2633 36.7146 43.701 36.8759 44.0754C37.0372 44.4498 37.4749 44.6226 37.8493 44.4614C38.2237 44.3001 38.3965 43.8623 38.2352 43.4879C38.1143 43.2115 37.8407 43.0415 37.5527 43.0415Z" fill="white"/>
<path d="M40.6458 43.2057C40.3348 43.2057 40.0353 43.0242 39.9057 42.719C39.8221 42.5231 39.8193 42.3042 39.897 42.1026C39.9777 41.901 40.1303 41.7455 40.3261 41.6591L47.8574 38.4134C48.0532 38.3298 48.2721 38.327 48.4737 38.4047C48.6753 38.4854 48.8308 38.638 48.9172 38.8338C49.0929 39.2428 48.9028 39.718 48.4967 39.8937L40.9655 43.1394C40.8618 43.1855 40.7524 43.2057 40.6458 43.2057ZM48.1742 38.6351C48.105 38.6351 48.0359 38.6495 47.9697 38.6783L40.4385 41.9241C40.1764 42.0364 40.0554 42.3417 40.1677 42.6038C40.2801 42.8658 40.5853 42.9868 40.8474 42.8745L48.3786 39.6287C48.6407 39.5164 48.7617 39.2111 48.6494 38.949C48.5946 38.8223 48.4938 38.7244 48.3642 38.6726C48.3038 38.6495 48.2375 38.6351 48.1742 38.6351Z" fill="white"/>
<path opacity="0.18" d="M63.3171 40.559L34.7447 73.0108L38.1776 80.9798L65.9523 46.6732L63.3171 40.559Z" fill="white"/>
<path opacity="0.1" d="M67.9251 51.3906L41.6365 89.1474L45.0723 97.1135L70.6727 57.7641L67.9251 51.3906Z" fill="white"/>
<path d="M88.9233 34.4663C91.0741 27.5457 87.2727 20.2121 80.4326 18.0863C73.5925 15.9605 66.304 19.8475 64.1532 26.7681C62.0024 33.6886 65.8037 41.0222 72.6438 43.148C79.4839 45.2738 86.7725 41.3868 88.9233 34.4663Z" fill="#3A93FB"/>
<path d="M88.2384 32.8977C90.39 25.9779 86.5897 18.6444 79.7504 16.5178C72.911 14.3913 65.6225 18.2771 63.4709 25.197C61.3194 32.1168 65.1196 39.4503 71.959 41.5769C78.7983 43.7034 86.0869 39.8176 88.2384 32.8977Z" fill="#3865A7"/>
<path opacity="0.93" d="M85.3717 32.0079C87.0249 26.6889 84.1037 21.0525 78.847 19.4186C73.5903 17.7847 67.9887 20.7721 66.3354 26.0911C64.6822 31.4101 67.6034 37.0465 72.8601 38.6804C78.1168 40.3143 83.7185 37.3269 85.3717 32.0079Z" fill="white"/>
<path d="M76.0699 28.3536C75.8136 28.273 75.6725 28.0023 75.7531 27.7488L77.4984 22.1328C77.579 21.8765 77.8498 21.7354 78.1032 21.816C78.3595 21.8967 78.5006 22.1674 78.42 22.4208L76.6747 28.0368C76.5941 28.2903 76.3234 28.4314 76.0699 28.3536Z" fill="#9FBFFF"/>
<path d="M75.831 29.2119C75.9116 28.9556 76.1824 28.8145 76.4358 28.8951L80.7644 30.2401C81.0208 30.3207 81.1619 30.5914 81.0812 30.8449C81.0006 31.1012 80.7299 31.2423 80.4764 31.1617L76.1478 29.8167C75.8944 29.739 75.7532 29.4682 75.831 29.2119Z" fill="#9FBFFF"/>
<path d="M77.2388 29.4767C76.9969 30.2515 76.1819 30.6863 75.4187 30.4473C74.6526 30.2083 74.2293 29.3903 74.4683 28.6156C74.7073 27.8409 75.5253 27.406 76.2885 27.6451C77.0545 27.8812 77.4779 28.702 77.2388 29.4767Z" fill="#1B1B25"/>
<path d="M93.7789 96.7246L69.3623 88.2574C67.1102 87.477 65.915 85.0174 66.6983 82.7624L87.0138 24.1745C87.7943 21.9224 90.2538 20.7272 92.5089 21.5105L116.925 29.9777C119.178 30.7582 120.373 33.2177 119.589 35.4728L99.2711 94.0606C98.4906 96.3128 96.0311 97.508 93.7789 96.7246Z" fill="#101011"/>
<path d="M93.373 95.5813L70.3906 87.6123C68.2709 86.8779 67.1679 84.4962 67.9311 82.2987L87.7685 25.0904C88.5317 22.8901 90.8703 21.7035 92.99 22.4379L115.972 30.4069C118.092 31.1413 119.195 33.523 118.432 35.7205L98.5944 92.9288C97.8312 95.1291 95.4927 96.3186 93.373 95.5813Z" fill="#282830"/>
<path d="M87.5424 28.9327L69.9133 79.7751L98.6446 89.7373L116.274 38.895L87.5424 28.9327Z" fill="white"/>
<path opacity="0.89" d="M103.773 28.9842C103.715 28.9842 103.657 28.9756 103.603 28.9554C103.473 28.9093 103.367 28.8172 103.306 28.6904C103.246 28.5666 103.237 28.4255 103.283 28.293C103.329 28.1634 103.421 28.0568 103.548 27.9964C103.672 27.9359 103.813 27.9272 103.945 27.9733C104.078 28.0194 104.182 28.1116 104.242 28.2383C104.303 28.3621 104.311 28.5032 104.265 28.6357C104.219 28.7682 104.127 28.8719 104 28.9324C103.928 28.9669 103.85 28.9842 103.773 28.9842ZM103.773 28.2325C103.738 28.2325 103.704 28.2412 103.672 28.2556C103.617 28.2815 103.574 28.3304 103.554 28.388C103.534 28.4456 103.536 28.509 103.565 28.5637C103.591 28.6184 103.64 28.6616 103.698 28.6818C103.755 28.702 103.819 28.6991 103.873 28.6703C103.928 28.6444 103.971 28.5954 103.992 28.5378C104.012 28.4802 104.009 28.4168 103.98 28.3621C103.954 28.3074 103.905 28.2642 103.848 28.244C103.824 28.2383 103.799 28.2325 103.773 28.2325Z" fill="white"/>
<path opacity="0.89" d="M105.875 31.5762C105.832 31.5762 105.789 31.5704 105.746 31.5531L100.305 29.6667C100.101 29.5947 99.9913 29.3701 100.063 29.1656C100.098 29.0648 100.17 28.987 100.265 28.941C100.36 28.8949 100.467 28.8891 100.564 28.9237L106.005 30.8101C106.106 30.8446 106.183 30.9166 106.229 31.0117C106.275 31.1067 106.281 31.2133 106.247 31.3141C106.192 31.4725 106.039 31.5762 105.875 31.5762ZM105.841 31.2824C105.895 31.3026 105.956 31.2709 105.976 31.2162C105.985 31.1902 105.985 31.1614 105.97 31.1355C105.959 31.1096 105.936 31.0894 105.91 31.0808L100.469 29.1944C100.443 29.1858 100.415 29.1858 100.389 29.2002C100.363 29.2117 100.343 29.2347 100.334 29.2606C100.314 29.3154 100.346 29.3758 100.4 29.396L105.841 31.2824Z" fill="white"/>
<g opacity="0.41">
<g opacity="0.41">
<g opacity="0.81">
<path opacity="0.81" d="M88.8426 30.9321L72.3608 78.4657L98.0554 87.3751L114.537 39.8415L88.8426 30.9321Z" fill="#9FBFFF"/>
</g>
</g>
</g>
<path d="M85.8041 90.7428C85.6745 90.7428 85.5449 90.7198 85.4182 90.6766L79.6726 88.6836C79.0592 88.4705 78.7337 87.7994 78.9468 87.186L78.9814 87.0852C79.0851 86.7886 79.2982 86.5495 79.5804 86.4113C79.8627 86.273 80.1824 86.2558 80.479 86.3594L86.2246 88.3524C86.838 88.5655 87.1635 89.2366 86.9504 89.85L86.9158 89.9508C86.8121 90.2474 86.599 90.4865 86.3168 90.6247C86.1555 90.7025 85.9798 90.7428 85.8041 90.7428ZM79.2176 87.281C79.0563 87.7447 79.304 88.2516 79.7676 88.4129L85.5132 90.4058C85.9769 90.5671 86.4838 90.3194 86.6451 89.8558L86.6796 89.755C86.8409 89.2913 86.5932 88.7844 86.1296 88.6231L80.384 86.6302C80.1593 86.5524 79.9174 86.5668 79.7043 86.6705C79.4912 86.7742 79.3299 86.9556 79.2521 87.1802L79.2176 87.281Z" fill="white"/>
<path opacity="0.18" d="M85.9108 33.6441L110.546 55.4226L107.635 63.8207L83.7594 39.4185L85.9108 33.6441Z" fill="white"/>
<path opacity="0.18" d="M82.2072 44.2452L106.843 66.0238L103.931 74.4219L81.4584 46.2584L82.2072 44.2452Z" fill="white"/>
<path d="M42.6416 32.7535L35.1593 33.4562C33.5696 33.606 32.1468 32.4223 31.9971 30.8268L31.3548 24.0012C31.2051 22.4057 32.383 20.9772 33.9728 20.8274L41.455 20.1247C43.0448 19.9749 44.4675 21.1586 44.6172 22.7541L45.2595 29.5797C45.4092 31.1752 44.2313 32.6037 42.6416 32.7535Z" fill="#AA0D0D"/>
<path d="M42.7684 31.7145L35.865 32.3625C34.3991 32.5008 33.0858 31.4121 32.9476 29.9462L32.3572 23.6707C32.219 22.2048 33.3076 20.8915 34.7735 20.7533L41.6769 20.1053C43.1428 19.967 44.4561 21.0557 44.5943 22.5216L45.1847 28.7971C45.323 30.263 44.2343 31.5763 42.7684 31.7145Z" fill="#FE5F5F"/>
<path d="M36.4669 29.6697C36.441 29.6697 36.4237 29.6697 36.4151 29.6668L36.3373 29.6351L36.3258 29.5516C36.2077 28.5321 36.6599 27.5327 37.4864 26.9452C36.9623 26.6025 36.6138 26.0466 36.5389 25.4159C36.4064 24.2553 37.2387 23.2041 38.3994 23.0716C38.961 23.0054 39.5139 23.1638 39.9575 23.5151C40.401 23.8665 40.6803 24.3705 40.7437 24.9321C40.8157 25.5628 40.6055 26.182 40.1706 26.637C41.1095 27.023 41.7776 27.8898 41.8957 28.9094L41.9043 28.9929L41.8381 29.0447C41.7315 29.1225 37.0227 29.6697 36.4669 29.6697ZM38.6528 23.3394C38.5808 23.3394 38.5117 23.3423 38.4397 23.351C37.4375 23.4662 36.7175 24.3762 36.8327 25.3785C36.9047 25.9919 37.2762 26.5247 37.832 26.8041L38.0682 26.9222L37.8407 27.0575C37.0199 27.5414 36.5447 28.4428 36.6051 29.3846C37.3194 29.3298 40.8935 28.918 41.5991 28.8086C41.4435 27.8783 40.7725 27.1094 39.8653 26.8242L39.6119 26.7465L39.8163 26.5766C40.2944 26.1791 40.5363 25.5743 40.4643 24.9609C40.4096 24.4742 40.1677 24.0422 39.7847 23.7369C39.4592 23.4777 39.0618 23.3394 38.6528 23.3394Z" fill="white"/>
<path d="M90.625 109.017L74.1427 103.824C73.7625 103.703 73.3565 103.916 73.2355 104.296L72.6768 106.068L72.4032 106.934L69.7161 115.459L69.4829 116.199L69.4483 116.312C69.3273 116.692 69.5405 117.098 69.9206 117.219L86.4029 122.412C86.783 122.532 87.1891 122.319 87.3101 121.939L87.3561 121.798L87.5664 121.133L90.4752 111.905L90.7459 111.041L91.0973 109.924C91.2182 109.541 91.008 109.135 90.625 109.017Z" fill="white"/>
<path d="M78.5119 111.784L80.0211 113.302C80.1103 113.391 80.2399 113.432 80.3638 113.406L89.8764 111.211L90.5935 111.047C90.6454 111.036 90.6972 111.036 90.7491 111.041L91.1004 109.924C91.2214 109.544 91.0083 109.138 90.6281 109.017L74.1458 103.824C73.7657 103.703 73.3596 103.916 73.2386 104.296L72.6799 106.068L73.0457 106.428L78.5119 111.784Z" fill="#3865A7"/>
<path d="M72.4059 106.931L69.7189 115.459L77.7685 112.193L72.4059 106.931Z" fill="#3865A7"/>
<path d="M87.5666 121.133L90.4754 111.905L82.8174 113.671L87.5666 121.133Z" fill="#3865A7"/>
<path d="M86.9185 121.622L81.9793 113.864L80.5393 114.195C80.3319 114.238 80.1217 114.227 79.9287 114.166C79.7502 114.109 79.5831 114.011 79.4449 113.872L78.3822 112.804C78.3562 112.821 78.3303 112.838 78.3015 112.85L69.8948 116.263C69.8026 116.3 69.7076 116.3 69.6212 116.274C69.5722 116.26 69.5262 116.234 69.4858 116.199L69.4513 116.312C69.3303 116.692 69.5434 117.098 69.9236 117.219L86.4058 122.412C86.786 122.533 87.1921 122.319 87.313 121.939L87.3591 121.798C87.2871 121.815 87.2094 121.815 87.1402 121.792C87.051 121.766 86.9703 121.709 86.9185 121.622Z" fill="#3865A7"/>
<path d="M80.0006 63.3167L73.633 66.0613C72.2794 66.646 70.6954 66.0152 70.1136 64.6616L67.6195 58.8728C67.0349 57.5192 67.6656 55.9352 69.0192 55.3535L75.3869 52.6088C76.7405 52.0242 78.3245 52.6549 78.9062 54.0085L81.4003 59.7973C81.9821 61.148 81.3542 62.732 80.0006 63.3167Z" fill="#AA0D0D"/>
<path d="M79.7242 62.591L73.3565 65.3356C72.0029 65.9203 70.4189 65.2895 69.8371 63.9359L67.343 58.1471C66.7584 56.7935 67.3891 55.2095 68.7427 54.6278L75.1104 51.8831C76.464 51.2985 78.048 51.9292 78.6297 53.2828L81.1238 59.0716C81.7056 60.4223 81.0749 62.0063 79.7242 62.591Z" fill="#FE5F5F"/>
<path d="M74.2349 60.9982C73.3105 60.9982 72.4263 60.4568 72.0375 59.5553C71.5162 58.3457 72.0749 56.9374 73.2874 56.4161C73.8721 56.1627 74.5229 56.1541 75.1162 56.3902C75.7095 56.6264 76.1761 57.0785 76.4266 57.6661C76.6801 58.2507 76.6887 58.9016 76.4525 59.4949C76.2164 60.0881 75.7642 60.5547 75.1796 60.8053C74.8714 60.9349 74.5489 60.9982 74.2349 60.9982ZM74.2321 56.5054C73.9498 56.5054 73.6676 56.563 73.3997 56.6782C72.3341 57.1361 71.8417 58.3745 72.3025 59.4401C72.7604 60.5057 74.0017 60.9953 75.0644 60.5374C75.5799 60.3157 75.9773 59.9067 76.1847 59.3825C76.3921 58.8613 76.3834 58.291 76.1617 57.7755C75.9399 57.26 75.5309 56.8625 75.0097 56.6552C74.7562 56.5544 74.4941 56.5054 74.2321 56.5054Z" fill="white"/>
<path d="M117.161 62.8474L107.271 61.9776C105.169 61.7933 103.602 59.9213 103.786 57.8189L104.575 48.8276C104.76 46.7252 106.632 45.1584 108.734 45.3428L118.624 46.2125C120.727 46.3968 122.293 48.2688 122.109 50.3712L121.32 59.3626C121.135 61.465 119.263 63.0317 117.161 62.8474Z" fill="#3A93FB"/>
<path d="M118.348 61.8394L108.458 60.9696C106.355 60.7853 104.789 58.9133 104.973 56.8109L105.762 47.8195C105.946 45.7171 107.818 44.1504 109.921 44.3347L119.811 45.2045C121.913 45.3888 123.48 47.2608 123.295 49.3632L122.506 58.3546C122.319 60.4541 120.45 62.0237 118.348 61.8394Z" fill="#3865A7"/>
<path d="M113.918 57.7411C113.858 57.7411 113.795 57.7382 113.734 57.7324C112.801 57.6432 112.058 56.903 111.966 55.9728L111.948 55.8L115.854 56.1686L115.805 56.3356C115.554 57.1737 114.779 57.7411 113.918 57.7411ZM112.28 56.1196C112.427 56.831 113.026 57.3753 113.763 57.4473C114.5 57.5164 115.191 57.0931 115.468 56.422L112.28 56.1196Z" fill="white"/>
<path d="M116.784 56.5344C116.723 56.5344 116.666 56.5315 116.605 56.5257L111.142 56.0102C110.12 55.9152 109.368 55.0051 109.463 53.9827C109.544 53.1245 110.2 52.4419 111.044 52.3181L111.211 50.544C111.375 48.7958 112.928 47.5027 114.681 47.6697C116.43 47.8339 117.72 49.392 117.556 51.1401L117.389 52.9142C118.195 53.1936 118.711 53.9856 118.63 54.8438C118.584 55.3392 118.348 55.7856 117.965 56.1024C117.628 56.3875 117.213 56.5344 116.784 56.5344ZM114.382 47.9462C112.904 47.9462 111.64 49.0752 111.499 50.5728L111.309 52.5859L111.188 52.5945C110.428 52.655 109.823 53.2512 109.751 54.0115C109.67 54.8755 110.307 55.6445 111.168 55.7251L116.631 56.2406C117.052 56.2809 117.458 56.1542 117.78 55.8864C118.103 55.6185 118.304 55.2413 118.342 54.8237C118.414 54.0633 117.93 53.3635 117.196 53.1619L117.08 53.1302L117.271 51.1171C117.42 49.5245 116.248 48.1104 114.656 47.9577C114.563 47.9491 114.474 47.9462 114.382 47.9462Z" fill="white"/>
<path d="M59.4433 91.8315L24.1115 107.343C22.5015 108.052 20.6209 107.317 19.9124 105.707L13.778 91.7278C13.0695 90.1179 13.8039 88.2372 15.4139 87.5288L50.7428 72.0171C52.3528 71.3086 54.2334 72.043 54.9419 73.6529L61.0792 87.6296C61.7876 89.2452 61.0532 91.123 59.4433 91.8315Z" fill="#AA0D0D"/>
<path d="M59.5012 89.4902L23.5703 105.264C22.4615 105.751 21.1684 105.247 20.6817 104.138L14.5991 90.2822C14.1124 89.1734 14.6164 87.8802 15.7252 87.3935L51.6532 71.6197C52.762 71.133 54.0551 71.637 54.5418 72.7458L60.6244 86.6015C61.114 87.7103 60.61 89.0034 59.5012 89.4902Z" fill="#FE5F5F"/>
<path d="M30.055 85.2181L19.4492 89.8747L24.1057 100.48L34.7115 95.8239L30.055 85.2181Z" fill="white"/>
<path d="M34.6986 86.2041C34.5892 86.2041 34.4826 86.1408 34.4337 86.0313C34.3703 85.8844 34.4366 85.7145 34.5806 85.6512L50.4033 78.7046C50.5502 78.6412 50.7201 78.7075 50.7834 78.8515C50.8468 78.9984 50.7806 79.1683 50.6366 79.2316L34.8138 86.1782C34.7764 86.1955 34.739 86.2041 34.6986 86.2041Z" fill="white"/>
<path d="M38.2264 94.2364C38.1169 94.2364 38.0104 94.173 37.9614 94.0636C37.8981 93.9167 37.9643 93.7468 38.1083 93.6834L53.931 86.7369C54.0779 86.6735 54.2478 86.7397 54.3112 86.8837C54.3745 87.0306 54.3083 87.2005 54.1643 87.2639L38.3416 94.2105C38.3042 94.2277 38.2638 94.2364 38.2264 94.2364Z" fill="white"/>
<path d="M36.4609 90.2216C36.3515 90.2216 36.2449 90.1583 36.196 90.0488C36.1326 89.9019 36.1988 89.732 36.3428 89.6687L44.6948 86.0024C44.8417 85.9391 45.0116 86.0053 45.075 86.1493C45.1384 86.2962 45.0721 86.4661 44.9281 86.5295L36.5761 90.1957C36.5387 90.213 36.5012 90.2216 36.4609 90.2216Z" fill="white"/>
<path d="M46.7425 85.7058C46.6331 85.7058 46.5265 85.6424 46.4776 85.533C46.4142 85.3861 46.4804 85.2162 46.6244 85.1529L52.1656 82.7193C52.3124 82.6559 52.4824 82.7222 52.5457 82.8662C52.6091 83.013 52.5428 83.1829 52.3988 83.2463L46.8577 85.6799C46.8203 85.7001 46.7828 85.7058 46.7425 85.7058Z" fill="white"/>
<path d="M120.139 97.0101C120.263 100.008 116.954 106.54 115.304 109.221C114.975 109.754 113.832 110.356 112.948 109.233C111.001 106.762 106.638 100.576 106.514 97.5804C106.356 93.8191 109.279 90.6396 113.043 90.4841C116.804 90.3228 119.981 93.246 120.139 97.0101Z" fill="#AA0D0D"/>
<path d="M120.871 96.6442C120.995 99.6423 116.951 106.54 115.304 109.221C114.975 109.754 114.215 109.786 113.844 109.282C111.977 106.747 107.372 100.213 107.245 97.2145C107.087 93.4532 110.01 90.2737 113.774 90.1181C117.536 89.9597 120.715 92.883 120.871 96.6442Z" fill="#FE5F5F"/>
<path d="M118.095 96.644C118.187 98.876 116.453 100.76 114.224 100.855C111.992 100.947 110.108 99.2129 110.013 96.9838C109.921 94.7518 111.655 92.8683 113.884 92.7733C116.116 92.6782 118.003 94.412 118.095 96.644Z" fill="white"/>
</svg>
